<!-- Generated by IcoMoon.io -->
<svg version="1.1" xmlns="http://www.w3.org/2000/svg" width="34" height="32" viewBox="0 0 34 32">
<title>camera</title>
<path d="M17.143 12q2.125 0 3.634 1.509t1.509 3.634-1.509 3.634-3.634 1.509-3.634-1.509-1.509-3.634 1.509-3.634 3.634-1.509zM29.714 4.571q1.893 0 3.232 1.339t1.339 3.232v16q0 1.893-1.339 3.232t-3.232 1.339h-25.143q-1.893 0-3.232-1.339t-1.339-3.232v-16q0-1.893 1.339-3.232t3.232-1.339h4l0.911-2.429q0.339-0.875 1.241-1.509t1.848-0.634h9.143q0.946 0 1.848 0.634t1.241 1.509l0.911 2.429h4zM17.143 25.143q3.304 0 5.652-2.348t2.348-5.652-2.348-5.652-5.652-2.348-5.652 2.348-2.348 5.652 2.348 5.652 5.652 2.348z"></path>
</svg>
