<!-- Generated by IcoMoon.io -->
<svg version="1.1" xmlns="http://www.w3.org/2000/svg" width="33" height="32" viewBox="0 0 33 32">
<title>coffee</title>
<path d="M29.714 11.429q0-1.429-1-2.429t-2.429-1h-1.143v6.857h1.143q1.429 0 2.429-1t1-2.429zM0 25.143h32q0 1.893-1.339 3.232t-3.232 1.339h-22.857q-1.893 0-3.232-1.339t-1.339-3.232zM33.143 11.429q0 2.839-2.009 4.848t-4.848 2.009h-1.143v0.571q0 1.643-1.179 2.821t-2.821 1.179h-12.571q-1.643 0-2.821-1.179t-1.179-2.821v-13.143q0-0.464 0.339-0.804t0.804-0.339h20.571q2.839 0 4.848 2.009t2.009 4.848z"></path>
</svg>
