<!-- Generated by IcoMoon.io -->
<svg version="1.1" xmlns="http://www.w3.org/2000/svg" width="23" height="32" viewBox="0 0 23 32">
<title>foursquare</title>
<path d="M17.857 7.75l0.661-3.464q0.089-0.411-0.161-0.714t-0.625-0.304h-12.714q-0.411 0-0.688 0.304t-0.277 0.661v19.661q0 0.125 0.107 0.018l5.196-6.286q0.411-0.464 0.679-0.598t0.857-0.134h4.268q0.393 0 0.661-0.259t0.321-0.527q0.429-2.321 0.661-3.411 0.071-0.375-0.205-0.714t-0.652-0.339h-5.25q-0.518 0-0.857-0.339t-0.339-0.857v-0.75q0-0.518 0.339-0.848t0.857-0.33h6.179q0.321 0 0.625-0.241t0.357-0.527zM21.911 3.786q-0.268 1.304-0.955 4.759t-1.241 6.25-0.625 3.098q-0.107 0.393-0.161 0.58t-0.25 0.58-0.438 0.589-0.688 0.375-1.036 0.179h-4.839q-0.232 0-0.393 0.179-0.143 0.161-7.607 8.821-0.393 0.446-1.045 0.509t-0.866-0.098q-0.982-0.393-0.982-1.75v-25.179q0-0.982 0.679-1.83t2.143-0.848h15.857q1.696 0 2.268 0.946t0.179 2.839zM21.911 3.786l-2.821 14.107q0.071-0.304 0.625-3.098t1.241-6.25 0.955-4.759z"></path>
</svg>
