<!-- Generated by IcoMoon.io -->
<svg version="1.1" xmlns="http://www.w3.org/2000/svg" width="32" height="32" viewBox="0 0 32 32">
<title>leaf</title>
<path d="M22.857 12.571q0-0.464-0.339-0.804t-0.804-0.339q-3.071 0-5.679 0.884t-4.634 2.393-4.205 3.92q-0.339 0.375-0.339 0.804 0 0.464 0.339 0.804t0.804 0.339q0.429 0 0.804-0.339 0.482-0.429 1.321-1.268t1.196-1.179q2.446-2.214 4.795-3.143t5.598-0.929q0.464 0 0.804-0.339t0.339-0.804zM32 9.036q0 1.696-0.357 3.446-0.821 4-3.295 6.839t-6.384 4.786q-3.821 1.929-7.821 1.929-2.643 0-5.107-0.839-0.268-0.089-1.571-0.75t-1.714-0.661q-0.286 0-0.705 0.571t-0.804 1.25-0.938 1.25-1.071 0.571q-0.536 0-0.911-0.196t-0.554-0.429-0.482-0.75q-0.036-0.071-0.107-0.196t-0.098-0.179-0.054-0.17-0.027-0.241q0-0.625 0.554-1.313t1.214-1.17 1.214-1 0.554-0.857q0-0.071-0.25-0.679t-0.286-0.786q-0.161-0.911-0.161-1.857 0-2.054 0.777-3.929t2.125-3.295 3.045-2.482 3.643-1.705q0.982-0.321 2.589-0.455t3.205-0.161 3.188-0.107 2.92-0.429 2.027-1.009l0.527-0.527t0.527-0.5 0.482-0.357 0.652-0.286 0.777-0.080q0.696 0 1.259 0.821t0.848 2 0.429 2.214 0.143 1.714z"></path>
</svg>
