<!-- Generated by IcoMoon.io -->
<svg version="1.1" xmlns="http://www.w3.org/2000/svg" width="32" height="32" viewBox="0 0 32 32">
<title>paint-brush</title>
<path d="M28.839 0q1.25 0 2.188 0.83t0.938 2.080q0 1.125-0.804 2.696-5.929 11.232-8.304 13.429-1.732 1.625-3.893 1.625-2.25 0-3.866-1.652t-1.616-3.92q0-2.286 1.643-3.786l11.393-10.339q1.054-0.964 2.321-0.964zM12.607 18.464q0.696 1.357 1.902 2.321t2.688 1.357l0.018 1.268q0.071 3.804-2.313 6.196t-6.223 2.393q-2.196 0-3.893-0.83t-2.723-2.277-1.545-3.268-0.518-3.929q0.125 0.089 0.732 0.536t1.107 0.795 1.054 0.652 0.821 0.304q0.732 0 0.982-0.661 0.446-1.179 1.027-2.009t1.241-1.357 1.571-0.848 1.839-0.455 2.232-0.188z"></path>
</svg>
