<!-- Generated by IcoMoon.io -->
<svg version="1.1" xmlns="http://www.w3.org/2000/svg" width="23" height="32" viewBox="0 0 23 32">
<title>shield</title>
<path d="M19.429 17.143v-11.429h-8v20.304q2.125-1.125 3.804-2.446 4.196-3.286 4.196-6.429zM22.857 3.429v13.714q0 1.536-0.598 3.045t-1.482 2.679-2.107 2.277-2.259 1.839-2.161 1.384-1.598 0.884-0.759 0.357q-0.214 0.107-0.464 0.107t-0.464-0.107q-0.286-0.125-0.759-0.357t-1.598-0.884-2.161-1.384-2.259-1.839-2.107-2.277-1.482-2.679-0.598-3.045v-13.714q0-0.464 0.339-0.804t0.804-0.339h20.571q0.464 0 0.804 0.339t0.339 0.804z"></path>
</svg>
