<!-- Generated by IcoMoon.io -->
<svg version="1.1" xmlns="http://www.w3.org/2000/svg" width="32" height="32" viewBox="0 0 32 32">
<title>signal</title>
<path d="M4.571 25.714v3.429q0 0.25-0.161 0.411t-0.411 0.161h-3.429q-0.25 0-0.411-0.161t-0.161-0.411v-3.429q0-0.25 0.161-0.411t0.411-0.161h3.429q0.25 0 0.411 0.161t0.161 0.411zM11.429 23.429v5.714q0 0.25-0.161 0.411t-0.411 0.161h-3.429q-0.25 0-0.411-0.161t-0.161-0.411v-5.714q0-0.25 0.161-0.411t0.411-0.161h3.429q0.25 0 0.411 0.161t0.161 0.411zM18.286 18.857v10.286q0 0.25-0.161 0.411t-0.411 0.161h-3.429q-0.25 0-0.411-0.161t-0.161-0.411v-10.286q0-0.25 0.161-0.411t0.411-0.161h3.429q0.25 0 0.411 0.161t0.161 0.411zM25.143 12v17.143q0 0.25-0.161 0.411t-0.411 0.161h-3.429q-0.25 0-0.411-0.161t-0.161-0.411v-17.143q0-0.25 0.161-0.411t0.411-0.161h3.429q0.25 0 0.411 0.161t0.161 0.411zM32 2.857v26.286q0 0.25-0.161 0.411t-0.411 0.161h-3.429q-0.25 0-0.411-0.161t-0.161-0.411v-26.286q0-0.25 0.161-0.411t0.411-0.161h3.429q0.25 0 0.411 0.161t0.161 0.411z"></path>
</svg>
