<!-- Generated by IcoMoon.io -->
<svg version="1.1" xmlns="http://www.w3.org/2000/svg" width="27" height="32" viewBox="0 0 27 32">
<title>tag</title>
<path d="M8 8q0-0.946-0.67-1.616t-1.616-0.67-1.616 0.67-0.67 1.616 0.67 1.616 1.616 0.67 1.616-0.67 0.67-1.616zM27.054 18.286q0 0.946-0.661 1.607l-8.768 8.786q-0.696 0.661-1.625 0.661-0.946 0-1.607-0.661l-12.768-12.786q-0.679-0.661-1.152-1.804t-0.473-2.089v-7.429q0-0.929 0.679-1.607t1.607-0.679h7.429q0.946 0 2.089 0.473t1.821 1.152l12.768 12.75q0.661 0.696 0.661 1.625z"></path>
</svg>
