<!-- Generated by IcoMoon.io -->
<svg version="1.1" xmlns="http://www.w3.org/2000/svg" width="30" height="32" viewBox="0 0 30 32">
<title>volume-up</title>
<path d="M13.714 6.286v19.429q0 0.464-0.339 0.804t-0.804 0.339-0.804-0.339l-5.946-5.946h-4.679q-0.464 0-0.804-0.339t-0.339-0.804v-6.857q0-0.464 0.339-0.804t0.804-0.339h4.679l5.946-5.946q0.339-0.339 0.804-0.339t0.804 0.339 0.339 0.804zM20.571 16q0 1.357-0.759 2.527t-2.009 1.67q-0.179 0.089-0.446 0.089-0.464 0-0.804-0.33t-0.339-0.813q0-0.375 0.214-0.634t0.518-0.446 0.607-0.411 0.518-0.634 0.214-1.018-0.214-1.018-0.518-0.634-0.607-0.411-0.518-0.446-0.214-0.634q0-0.482 0.339-0.813t0.804-0.33q0.268 0 0.446 0.089 1.25 0.482 2.009 1.661t0.759 2.536zM25.143 16q0 2.732-1.518 5.045t-4.018 3.366q-0.232 0.089-0.446 0.089-0.482 0-0.821-0.339t-0.339-0.804q0-0.696 0.696-1.054 1-0.518 1.357-0.786 1.321-0.964 2.063-2.42t0.741-3.098-0.741-3.098-2.063-2.42q-0.357-0.268-1.357-0.786-0.696-0.357-0.696-1.054 0-0.464 0.339-0.804t0.804-0.339q0.232 0 0.464 0.089 2.5 1.054 4.018 3.366t1.518 5.045zM29.714 16q0 4.107-2.268 7.545t-6.036 5.063q-0.232 0.089-0.464 0.089-0.464 0-0.804-0.339t-0.339-0.804q0-0.643 0.696-1.054 0.125-0.071 0.402-0.188t0.402-0.188q0.821-0.446 1.464-0.911 2.196-1.625 3.429-4.054t1.232-5.161-1.232-5.161-3.429-4.054q-0.643-0.464-1.464-0.911-0.125-0.071-0.402-0.188t-0.402-0.188q-0.696-0.411-0.696-1.054 0-0.464 0.339-0.804t0.804-0.339q0.232 0 0.464 0.089 3.768 1.625 6.036 5.063t2.268 7.545z"></path>
</svg>
