<!-- Generated by IcoMoon.io -->
<svg version="1.1" xmlns="http://www.w3.org/2000/svg" width="32" height="32" viewBox="0 0 32 32">
<title>weibo</title>
<path d="M12.054 22.929q0.375-0.607 0.196-1.232t-0.804-0.893q-0.607-0.25-1.304-0.018t-1.071 0.821q-0.393 0.607-0.232 1.223t0.768 0.902 1.33 0.045 1.116-0.848zM13.732 20.768q0.143-0.232 0.063-0.473t-0.313-0.33q-0.25-0.089-0.509 0.009t-0.384 0.33q-0.304 0.554 0.232 0.804 0.25 0.089 0.518-0.009t0.393-0.33zM16.839 22.679q-0.804 1.821-2.821 2.679t-4 0.214q-1.911-0.607-2.634-2.259t0.116-3.348q0.839-1.661 2.705-2.482t3.759-0.339q1.982 0.518 2.83 2.134t0.045 3.402zM22.411 19.821q-0.161-1.714-1.589-3.036t-3.723-1.946-4.902-0.375q-3.982 0.411-6.598 2.527t-2.366 4.723q0.161 1.714 1.589 3.036t3.723 1.946 4.902 0.375q3.982-0.411 6.598-2.527t2.366-4.723zM27.911 19.893q0 1.214-0.661 2.491t-1.946 2.446-3.009 2.098-4.036 1.482-4.83 0.554-4.911-0.598-4.295-1.661-3.063-2.696-1.161-3.563q0-2.054 1.241-4.375t3.527-4.607q3.018-3.018 6.098-4.214t4.402 0.125q1.161 1.143 0.357 3.732-0.071 0.25-0.018 0.357t0.179 0.125 0.259-0.009 0.241-0.063l0.107-0.036q2.482-1.054 4.393-1.054t2.732 1.089q0.804 1.125 0 3.179-0.036 0.232-0.080 0.357t0.080 0.223 0.214 0.134 0.304 0.107q1.018 0.321 1.839 0.839t1.429 1.455 0.607 2.080zM26.589 8.75q0.75 0.839 0.973 1.938t-0.116 2.098q-0.143 0.411-0.527 0.607t-0.795 0.071q-0.411-0.143-0.607-0.527t-0.071-0.795q0.357-1.125-0.429-1.982t-1.911-0.625q-0.429 0.089-0.804-0.143t-0.446-0.661q-0.089-0.429 0.143-0.795t0.661-0.455q1.071-0.232 2.125 0.098t1.804 1.17zM29.821 5.839q1.554 1.714 2.009 3.973t-0.241 4.313q-0.161 0.482-0.607 0.714t-0.929 0.071-0.714-0.607-0.089-0.929q0.5-1.464 0.179-3.071t-1.429-2.821q-1.107-1.232-2.643-1.705t-3.089-0.152q-0.5 0.107-0.929-0.17t-0.536-0.777 0.17-0.92 0.777-0.527q2.196-0.464 4.357 0.205t3.714 2.402z"></path>
</svg>
