<svg xmlns="http://www.w3.org/2000/svg" style="display:none"><symbol id="icon-angle-down" viewBox="0 0 18 28"><path d="M16.797 11.5a.54.54 0 0 1-.156.359L9.36 19.14c-.094.094-.234.156-.359.156s-.266-.063-.359-.156l-7.281-7.281c-.094-.094-.156-.234-.156-.359s.063-.266.156-.359l.781-.781a.508.508 0 0 1 .359-.156.54.54 0 0 1 .359.156l6.141 6.141 6.141-6.141c.094-.094.234-.156.359-.156s.266.063.359.156l.781.781a.536.536 0 0 1 .156.359z"/></symbol><symbol id="icon-chain" viewBox="0 0 26 28"><path d="M22.75 19c0-.406-.156-.781-.438-1.062l-3.25-3.25A1.516 1.516 0 0 0 18 14.25c-.453 0-.812.172-1.125.5.516.516 1.125.953 1.125 1.75a1.5 1.5 0 0 1-1.5 1.5c-.797 0-1.234-.609-1.75-1.125-.328.313-.516.672-.516 1.141 0 .391.156.781.438 1.062l3.219 3.234c.281.281.672.422 1.062.422s.781-.141 1.062-.406l2.297-2.281A1.48 1.48 0 0 0 22.75 19zM11.766 7.984a1.51 1.51 0 0 0-.438-1.062L8.109 3.688c-.281-.281-.672-.438-1.062-.438s-.781.156-1.062.422L3.688 5.953a1.484 1.484 0 0 0 0 2.109l3.25 3.25A1.5 1.5 0 0 0 8 11.734c.453 0 .812-.156 1.125-.484C8.609 10.734 8 10.297 8 9.5A1.5 1.5 0 0 1 9.5 8c.797 0 1.234.609 1.75 1.125.328-.313.516-.672.516-1.141zM25.75 19a4.468 4.468 0 0 1-1.328 3.172l-2.297 2.281a4.466 4.466 0 0 1-3.172 1.297 4.44 4.44 0 0 1-3.187-1.328l-3.219-3.234a4.466 4.466 0 0 1-1.297-3.172c0-1.234.5-2.406 1.375-3.266l-1.375-1.375A4.539 4.539 0 0 1 8 14.75a4.514 4.514 0 0 1-3.187-1.313l-3.25-3.25A4.454 4.454 0 0 1 .25 7c0-1.188.484-2.344 1.328-3.172l2.297-2.281A4.466 4.466 0 0 1 7.047.25a4.44 4.44 0 0 1 3.187 1.328l3.219 3.234a4.466 4.466 0 0 1 1.297 3.172c0 1.234-.5 2.406-1.375 3.266l1.375 1.375A4.539 4.539 0 0 1 18 11.25c1.188 0 2.344.469 3.187 1.313l3.25 3.25A4.454 4.454 0 0 1 25.75 19z"/></symbol><symbol id="icon-instagram" viewBox="0 0 24 28"><path d="M16 14c0-2.203-1.797-4-4-4s-4 1.797-4 4 1.797 4 4 4 4-1.797 4-4zm2.156 0c0 3.406-2.75 6.156-6.156 6.156S5.844 17.406 5.844 14 8.594 7.844 12 7.844s6.156 2.75 6.156 6.156zm1.688-6.406c0 .797-.641 1.437-1.437 1.437S16.97 8.39 16.97 7.594s.641-1.437 1.437-1.437 1.437.641 1.437 1.437zM12 4.156c-1.75 0-5.5-.141-7.078.484-.547.219-.953.484-1.375.906s-.688.828-.906 1.375c-.625 1.578-.484 5.328-.484 7.078s-.141 5.5.484 7.078c.219.547.484.953.906 1.375s.828.688 1.375.906c1.578.625 5.328.484 7.078.484s5.5.141 7.078-.484c.547-.219.953-.484 1.375-.906s.688-.828.906-1.375c.625-1.578.484-5.328.484-7.078s.141-5.5-.484-7.078c-.219-.547-.484-.953-.906-1.375s-.828-.688-1.375-.906C17.5 4.015 13.75 4.156 12 4.156zM24 14c0 1.656.016 3.297-.078 4.953-.094 1.922-.531 3.625-1.937 5.031s-3.109 1.844-5.031 1.937c-1.656.094-3.297.078-4.953.078s-3.297.016-4.953-.078c-1.922-.094-3.625-.531-5.031-1.937S.173 20.875.08 18.953C-.014 17.297.002 15.656.002 14s-.016-3.297.078-4.953c.094-1.922.531-3.625 1.937-5.031s3.109-1.844 5.031-1.937c1.656-.094 3.297-.078 4.953-.078s3.297-.016 4.953.078c1.922.094 3.625.531 5.031 1.937s1.844 3.109 1.937 5.031C24.016 10.703 24 12.344 24 14z"/></symbol><symbol id="icon-twitter" viewBox="0 0 26 28"><path d="M25.312 6.375a10.85 10.85 0 0 1-2.531 2.609c.016.219.016.438.016.656 0 6.672-5.078 14.359-14.359 14.359-2.859 0-5.516-.828-7.75-2.266.406.047.797.063 1.219.063 2.359 0 4.531-.797 6.266-2.156a5.056 5.056 0 0 1-4.719-3.5c.313.047.625.078.953.078.453 0 .906-.063 1.328-.172a5.048 5.048 0 0 1-4.047-4.953v-.063a5.093 5.093 0 0 0 2.281.641 5.044 5.044 0 0 1-2.25-4.203c0-.938.25-1.797.688-2.547a14.344 14.344 0 0 0 10.406 5.281 5.708 5.708 0 0 1-.125-1.156 5.045 5.045 0 0 1 5.047-5.047 5.03 5.03 0 0 1 3.687 1.594 9.943 9.943 0 0 0 3.203-1.219 5.032 5.032 0 0 1-2.219 2.781c1.016-.109 2-.391 2.906-.781z"/></symbol></svg>