<svg version="1.1" xmlns="http://www.w3.org/2000/svg" width="27" height="32" viewBox="0 0 27 32" class="svg" focusable="false" aria-hidden="true" role="img"><path d="M22.946 16q0-.482-.321-.804l-8.089-8.089q-.321-.321-.804-.321t-.804.321l-1.625 1.625q-.321.321-.321.804t.321.804l3.375 3.375H5.714q-.464 0-.804.339t-.339.804v2.286q0 .464.339.804t.804.339h8.964l-3.375 3.375q-.339.339-.339.804t.339.804l1.625 1.625q.321.321.804.321t.804-.321l8.089-8.089q.321-.321.321-.804zm4.483 0q0 3.732-1.839 6.884t-4.991 4.991-6.884 1.839-6.884-1.839-4.991-4.991T.001 16 1.84 9.116t4.991-4.991 6.884-1.839 6.884 1.839 4.991 4.991T27.429 16z"/></svg>