<svg version="1.1" xmlns="http://www.w3.org/2000/svg" width="37" height="32" viewBox="0 0 37 32" class="svg" focusable="false" aria-hidden="true" role="img"><path d="M33 6.054h-9.125v2.214H33V6.054zm-4.5 7.607q-1.607 0-2.607.938t-1.107 2.545h7.286q-.321-3.482-3.571-3.482zm.286 10.446q1.125 0 2.179-.571t1.357-1.554h3.946q-1.786 5.482-7.625 5.482-3.821 0-6.08-2.357t-2.259-6.196q0-3.714 2.33-6.17t6.009-2.455q2.464 0 4.295 1.214t2.732 3.196.902 4.429q0 .304-.036.839h-11.75q0 1.982 1.027 3.063t2.973 1.08zm-23.84-.893h5.286q3.661 0 3.661-2.982 0-3.214-3.554-3.214H4.946v6.196zm0-9.589h5.018q1.393 0 2.205-.652t.813-2.027q0-2.571-3.393-2.571H4.946v5.25zM0 4.536h10.607q1.554 0 2.768.25t2.259.848 1.607 1.723.563 2.75q0 3.232-3.071 4.696 2.036.571 3.071 2.054T18.84 20.5q0 1.339-.438 2.438t-1.179 1.848-1.759 1.268-2.161.75-2.393.232H-.001v-22.5z"/></svg>