<!-- Generated by IcoMoon.io -->
<svg version="1.1" xmlns="http://www.w3.org/2000/svg" width="16" height="32" viewBox="0 0 16 32">
<title>bolt</title>
<path d="M15.804 10.107q0.321 0.357 0.125 0.786l-9.643 20.661q-0.232 0.446-0.75 0.446-0.071 0-0.25-0.036-0.304-0.089-0.455-0.339t-0.080-0.536l3.518-14.429-7.25 1.804q-0.071 0.018-0.214 0.018-0.321 0-0.554-0.196-0.321-0.268-0.232-0.696l3.589-14.732q0.071-0.25 0.286-0.411t0.5-0.161h5.857q0.339 0 0.571 0.223t0.232 0.527q0 0.143-0.089 0.321l-3.054 8.268 7.071-1.75q0.143-0.036 0.214-0.036 0.339 0 0.607 0.268z"></path>
</svg>
