<svg version="1.1" xmlns="http://www.w3.org/2000/svg" width="16" height="32" viewBox="0 0 16 32" class="svg" focusable="false" aria-hidden="true" role="img"><path d="M15.804 10.107q.321.357.125.786L6.286 31.554q-.232.446-.75.446-.071 0-.25-.036-.304-.089-.455-.339t-.08-.536L8.269 16.66l-7.25 1.804q-.071.018-.214.018-.321 0-.554-.196-.321-.268-.232-.696L3.608 2.858q.071-.25.286-.411t.5-.161h5.857q.339 0 .571.223t.232.527q0 .143-.089.321l-3.054 8.268 7.071-1.75q.143-.036.214-.036.339 0 .607.268z"/></svg>