<svg version="1.1" xmlns="http://www.w3.org/2000/svg" width="30" height="32" viewBox="0 0 30 32" class="svg" focusable="false" aria-hidden="true" role="img"><path d="M25.143 16.607v5.679q0 2.125-1.509 3.634T20 27.429H5.143q-2.125 0-3.634-1.509T0 22.286V7.429q0-2.125 1.509-3.634t3.634-1.509H20q1.125 0 2.089.446.268.125.321.411.054.304-.161.518l-.875.875q-.179.179-.411.179-.054 0-.161-.036-.411-.107-.804-.107H5.141q-1.179 0-2.018.839t-.839 2.018v14.857q0 1.179.839 2.018t2.018.839h14.857q1.179 0 2.018-.839t.839-2.018V17.75q0-.232.161-.393l1.143-1.143q.179-.179.411-.179.107 0 .214.054.357.143.357.518zm4.125-8.732L14.732 22.411q-.429.429-1.018.429t-1.018-.429l-7.679-7.679q-.429-.429-.429-1.018t.429-1.018l1.964-1.964q.429-.429 1.018-.429t1.018.429l4.696 4.696L25.267 3.874q.429-.429 1.018-.429t1.018.429l1.964 1.964q.429.429.429 1.018t-.429 1.018z"/></svg>