<!-- Generated by IcoMoon.io -->
<svg version="1.1" xmlns="http://www.w3.org/2000/svg" width="30" height="32" viewBox="0 0 30 32">
<title>check-square-o</title>
<path d="M25.143 16.607v5.679q0 2.125-1.509 3.634t-3.634 1.509h-14.857q-2.125 0-3.634-1.509t-1.509-3.634v-14.857q0-2.125 1.509-3.634t3.634-1.509h14.857q1.125 0 2.089 0.446 0.268 0.125 0.321 0.411 0.054 0.304-0.161 0.518l-0.875 0.875q-0.179 0.179-0.411 0.179-0.054 0-0.161-0.036-0.411-0.107-0.804-0.107h-14.857q-1.179 0-2.018 0.839t-0.839 2.018v14.857q0 1.179 0.839 2.018t2.018 0.839h14.857q1.179 0 2.018-0.839t0.839-2.018v-4.536q0-0.232 0.161-0.393l1.143-1.143q0.179-0.179 0.411-0.179 0.107 0 0.214 0.054 0.357 0.143 0.357 0.518zM29.268 7.875l-14.536 14.536q-0.429 0.429-1.018 0.429t-1.018-0.429l-7.679-7.679q-0.429-0.429-0.429-1.018t0.429-1.018l1.964-1.964q0.429-0.429 1.018-0.429t1.018 0.429l4.696 4.696 11.554-11.554q0.429-0.429 1.018-0.429t1.018 0.429l1.964 1.964q0.429 0.429 0.429 1.018t-0.429 1.018z"></path>
</svg>
