<svg version="1.1" xmlns="http://www.w3.org/2000/svg" width="32" height="32" viewBox="0 0 32 32" class="svg" focusable="false" aria-hidden="true" role="img"><path d="M3.857 20.875l10.768 7.179v-6.411l-5.964-3.982zM2.75 18.304L6.196 16 2.75 13.696v4.607zm14.625 9.75l10.768-7.179-4.804-3.214-5.964 3.982v6.411zM16 19.25L20.857 16 16 12.75 11.143 16zm-7.339-4.911l5.964-3.982V3.946L3.857 11.125zM25.804 16l3.446 2.304v-4.607zm-2.465-1.661l4.804-3.214-10.768-7.179v6.411zM32 11.125v9.75q0 .732-.607 1.143l-14.625 9.75Q16.393 32 16 32t-.768-.232L.607 22.018Q0 21.607 0 20.875v-9.75q0-.732.607-1.143L15.232.232Q15.607 0 16 0t.768.232l14.625 9.75q.607.411.607 1.143z"/></svg>