<svg version="1.1" xmlns="http://www.w3.org/2000/svg" width="33" height="32" viewBox="0 0 33 32" class="svg" focusable="false" aria-hidden="true" role="img"><path d="M29.714 11.429q0-1.429-1-2.429t-2.429-1h-1.143v6.857h1.143q1.429 0 2.429-1t1-2.429zM0 25.143h32q0 1.893-1.339 3.232t-3.232 1.339H4.572q-1.893 0-3.232-1.339T.001 25.143zm33.143-13.714q0 2.839-2.009 4.848t-4.848 2.009h-1.143v.571q0 1.643-1.179 2.821t-2.821 1.179H8.572q-1.643 0-2.821-1.179t-1.179-2.821V5.714q0-.464.339-.804t.804-.339h20.571q2.839 0 4.848 2.009t2.009 4.848z"/></svg>