<svg version="1.1" xmlns="http://www.w3.org/2000/svg" width="32" height="32" viewBox="0 0 32 32" class="svg" focusable="false" aria-hidden="true" role="img"><path d="M32 16q0 3.107-2.143 5.741t-5.821 4.161T16 27.429q-1.25 0-2.589-.143-3.536 3.125-8.214 4.321-.875.25-2.036.393-.304.036-.545-.161t-.313-.518v-.018q-.054-.071-.009-.214t.036-.179.08-.17l.107-.161.125-.152.143-.161q.125-.143.554-.616t.616-.679.554-.705.58-.911.482-1.054.464-1.357q-2.804-1.589-4.42-3.929t-1.616-5.018q0-2.321 1.268-4.438t3.411-3.652 5.107-2.438 6.214-.902q4.357 0 8.036 1.527t5.821 4.161 2.143 5.741z"/></svg>