<svg version="1.1" xmlns="http://www.w3.org/2000/svg" width="34" height="32" viewBox="0 0 34 32" class="svg" focusable="false" aria-hidden="true" role="img"><path d="M31.429 2.286q1.179 0 2.018.839t.839 2.018v21.714q0 1.179-.839 2.018t-2.018.839H2.858q-1.179 0-2.018-.839t-.839-2.018V5.143q0-1.179.839-2.018t2.018-.839h28.571zM2.857 4.571q-.232 0-.402.17t-.17.402v4h29.714v-4q0-.232-.17-.402t-.402-.17H2.856zm28.572 22.858q.232 0 .402-.17t.17-.402V16H2.287v10.857q0 .232.17.402t.402.17H31.43zM4.571 25.143v-2.286h4.571v2.286H4.571zm6.858 0v-2.286h6.857v2.286h-6.857z"/></svg>