<svg version="1.1" xmlns="http://www.w3.org/2000/svg" width="25" height="32" viewBox="0 0 25 32" class="svg" focusable="false" aria-hidden="true" role="img"><path d="M11.429 1.143v11.429q0 1.089-.634 1.982t-1.652 1.25v13.911q0 .929-.679 1.607t-1.607.679H4.571q-.929 0-1.607-.679t-.679-1.607V15.804q-1.018-.357-1.652-1.25t-.634-1.982V1.143q0-.464.339-.804T1.142 0t.804.339.339.804v7.429q0 .464.339.804t.804.339.804-.339.339-.804V1.143q0-.464.339-.804T5.714 0t.804.339.339.804v7.429q0 .464.339.804T8 9.715t.804-.339.339-.804V1.143q0-.464.339-.804T10.286 0t.804.339.339.804zm13.714 0v28.571q0 .929-.679 1.607T22.857 32h-2.286q-.929 0-1.607-.679t-.679-1.607v-9.143h-4q-.232 0-.402-.17t-.17-.402V5.713q0-2.357 1.679-4.036t4.036-1.679h4.571q.464 0 .804.339t.339.804z"/></svg>