<!-- Generated by IcoMoon.io -->
<svg version="1.1" xmlns="http://www.w3.org/2000/svg" width="25" height="32" viewBox="0 0 25 32">
<title>cutlery</title>
<path d="M11.429 1.143v11.429q0 1.089-0.634 1.982t-1.652 1.25v13.911q0 0.929-0.679 1.607t-1.607 0.679h-2.286q-0.929 0-1.607-0.679t-0.679-1.607v-13.911q-1.018-0.357-1.652-1.25t-0.634-1.982v-11.429q0-0.464 0.339-0.804t0.804-0.339 0.804 0.339 0.339 0.804v7.429q0 0.464 0.339 0.804t0.804 0.339 0.804-0.339 0.339-0.804v-7.429q0-0.464 0.339-0.804t0.804-0.339 0.804 0.339 0.339 0.804v7.429q0 0.464 0.339 0.804t0.804 0.339 0.804-0.339 0.339-0.804v-7.429q0-0.464 0.339-0.804t0.804-0.339 0.804 0.339 0.339 0.804zM25.143 1.143v28.571q0 0.929-0.679 1.607t-1.607 0.679h-2.286q-0.929 0-1.607-0.679t-0.679-1.607v-9.143h-4q-0.232 0-0.402-0.17t-0.17-0.402v-14.286q0-2.357 1.679-4.036t4.036-1.679h4.571q0.464 0 0.804 0.339t0.339 0.804z"></path>
</svg>
