<svg version="1.1" xmlns="http://www.w3.org/2000/svg" width="37" height="32" viewBox="0 0 37 32" class="svg" focusable="false" aria-hidden="true" role="img"><path d="M3.786 13.714l11.125 11.875-5.357-11.875H3.786zm14.5 13.786l6.232-13.786H12.054zM9.607 11.429l3.643-6.857H8.571l-5.143 6.857h6.179zm12.054 14.16l11.125-11.875h-5.768zm-9.465-14.16h12.179l-3.643-6.857h-4.893zm14.768 0h6.179L28 4.572h-4.679zm2.518-8.679l6.857 9.143q.25.321.232.741t-.304.723L19.124 31.643q-.321.357-.839.357t-.839-.357L.303 13.357q-.286-.304-.304-.723t.232-.741L7.088 2.75q.321-.464.911-.464H28.57q.589 0 .911.464z"/></svg>