<svg version="1.1" xmlns="http://www.w3.org/2000/svg" width="30" height="32" viewBox="0 0 30 32" class="svg" focusable="false" aria-hidden="true" role="img"><path d="M22.857 24q0-.464-.339-.804t-.804-.339-.804.339-.339.804.339.804.804.339.804-.339.339-.804zm4.572 0q0-.464-.339-.804t-.804-.339-.804.339-.339.804.339.804.804.339.804-.339.339-.804zm2.285-4v5.714q0 .714-.5 1.214t-1.214.5H1.714q-.714 0-1.214-.5T0 25.714V20q0-.714.5-1.214t1.214-.5h8.304l2.411 2.429q1.036 1 2.429 1t2.429-1l2.429-2.429h8.286q.714 0 1.214.5t.5 1.214zM23.911 9.839q.304.732-.25 1.25l-8 8q-.321.339-.804.339t-.804-.339l-8-8q-.554-.518-.25-1.25.304-.696 1.054-.696h4.571v-8q0-.464.339-.804T12.571 0h4.571q.464 0 .804.339t.339.804v8h4.571q.75 0 1.054.696z"/></svg>