<svg version="1.1" xmlns="http://www.w3.org/2000/svg" width="27" height="32" viewBox="0 0 27 32" class="svg" focusable="false" aria-hidden="true" role="img"><path d="M18.286 26.786q-.75-4.304-2.5-8.893h-.036l-.036.018q-.286.107-.768.295t-1.804.875-2.446 1.464-2.339 2.045-1.839 2.643l-.268-.196q3.286 2.679 7.464 2.679 2.357 0 4.571-.929zm-3.304-10.84q-.375-.875-.946-1.982-5.554 1.661-12.018 1.661Q2 15.75 2 16q0 2.214.786 4.223T5 23.821q.893-1.589 2.205-2.973t2.545-2.223 2.33-1.446 1.777-.857l.661-.232q.071-.018.232-.063t.232-.08zm-1.911-3.785q-2.143-3.804-4.357-6.75Q6.25 6.572 4.535 8.732t-2.286 4.857q5.393 0 10.821-1.429zm12.215 5.696q-3.75-1.071-7.304-.518 1.554 4.268 2.286 8.375 1.982-1.339 3.304-3.384t1.714-4.473zM10.911 4.625q-.018 0-.036.018.018-.018.036-.018zm10.535 2.589q-3.304-2.929-7.732-2.929-1.357 0-2.768.339 2.339 3.036 4.393 6.821 1.232-.464 2.321-1.08t1.723-1.098 1.17-1.018.67-.723zm3.983 8.661q-.054-4.143-2.661-7.321l-.018.018q-.161.214-.339.438t-.777.795-1.268 1.08-1.786 1.161-2.348 1.152q.446.946.786 1.696.036.107.116.313t.134.295q.643-.089 1.33-.125t1.313-.036 1.232.027 1.143.071 1.009.098.857.116.652.107.446.08zm2 .125q0 3.732-1.839 6.884t-4.991 4.991-6.884 1.839-6.884-1.839-4.991-4.991T.001 16 1.84 9.116t4.991-4.991 6.884-1.839 6.884 1.839 4.991 4.991T27.429 16z"/></svg>