<svg version="1.1" xmlns="http://www.w3.org/2000/svg" width="32" height="32" viewBox="0 0 32 32" class="svg" focusable="false" aria-hidden="true" role="img"><path d="M29.714 26.857V13.143q-.571.643-1.232 1.179-4.786 3.679-7.607 6.036-.911.768-1.482 1.196t-1.545.866-1.83.438h-.036q-.857 0-1.83-.438t-1.545-.866-1.482-1.196q-2.821-2.357-7.607-6.036-.661-.536-1.232-1.179v13.714q0 .232.17.402t.402.17h26.286q.232 0 .402-.17t.17-.402zm0-18.768v-.438l-.009-.232-.054-.223-.098-.161-.161-.134-.25-.045H2.856q-.232 0-.402.17t-.17.402q0 3 2.625 5.071 3.446 2.714 7.161 5.661l.625.527q.518.438.821.67t.795.563.902.491.768.161h.036q.357 0 .768-.161t.902-.491.795-.563.821-.67.625-.527q3.714-2.946 7.161-5.661.964-.768 1.795-2.063t.83-2.348zM32 7.429v19.429q0 1.179-.839 2.018t-2.018.839H2.857q-1.179 0-2.018-.839T0 26.858V7.429Q0 6.25.839 5.411t2.018-.839h26.286q1.179 0 2.018.839T32 7.429z"/></svg>