<svg version="1.1" xmlns="http://www.w3.org/2000/svg" width="23" height="32" viewBox="0 0 23 32" class="svg" focusable="false" aria-hidden="true" role="img"><path d="M22.857 18.857q0 .714-.5 1.214t-1.214.5q-.911 0-1.429-.768l-4.054-6.089h-.804v2.357l4.411 7.339q.161.268.161.589 0 .464-.339.804t-.804.339h-3.429v4.857q0 .821-.589 1.411t-1.411.589H9.999q-.821 0-1.411-.589t-.589-1.411v-4.857H4.57q-.464 0-.804-.339t-.339-.804q0-.321.161-.589l4.411-7.339v-2.357h-.804l-4.054 6.089q-.518.768-1.429.768-.714 0-1.214-.5t-.5-1.214q0-.518.286-.946l4.571-6.857q1.304-1.911 3.143-1.911h6.857q1.839 0 3.143 1.911l4.571 6.857q.286.429.286.946zM15.429 4.571q0 1.661-1.17 2.83t-2.83 1.17-2.83-1.17-1.17-2.83 1.17-2.83 2.83-1.17 2.83 1.17 1.17 2.83z"/></svg>