<svg version="1.1" xmlns="http://www.w3.org/2000/svg" width="27" height="32" viewBox="0 0 27 32" class="svg" focusable="false" aria-hidden="true" role="img"><path d="M26.214 6.786q.5.5.857 1.357t.357 1.571v20.571q0 .714-.5 1.214t-1.214.5h-24q-.714 0-1.214-.5T0 30.285V1.714Q0 1 .5.5T1.714 0h16q.714 0 1.571.357t1.357.857zm-7.928-4.357v6.714H25q-.179-.518-.393-.732l-5.589-5.589q-.214-.214-.732-.393zm6.857 27.285V11.428h-7.429q-.714 0-1.214-.5T16 9.714V2.285H2.286v27.429h22.857zM6.857 14.286q0-.25.161-.411t.411-.161H20q.25 0 .411.161t.161.411v1.143q0 .25-.161.411t-.411.161H7.429q-.25 0-.411-.161t-.161-.411v-1.143zm13.143 4q.25 0 .411.161t.161.411v1.143q0 .25-.161.411t-.411.161H7.429q-.25 0-.411-.161t-.161-.411v-1.143q0-.25.161-.411t.411-.161H20zm0 4.571q.25 0 .411.161t.161.411v1.143q0 .25-.161.411t-.411.161H7.429q-.25 0-.411-.161t-.161-.411v-1.143q0-.25.161-.411t.411-.161H20z"/></svg>