<svg version="1.1" xmlns="http://www.w3.org/2000/svg" width="34" height="32" viewBox="0 0 34 32" class="svg" focusable="false" aria-hidden="true" role="img"><path d="M6.857 28.571v-2.286q0-.464-.339-.804t-.804-.339H3.428q-.464 0-.804.339t-.339.804v2.286q0 .464.339.804t.804.339h2.286q.464 0 .804-.339t.339-.804zm0-6.857v-2.286q0-.464-.339-.804t-.804-.339H3.428q-.464 0-.804.339t-.339.804v2.286q0 .464.339.804t.804.339h2.286q.464 0 .804-.339t.339-.804zm0-6.857v-2.286q0-.464-.339-.804t-.804-.339H3.428q-.464 0-.804.339t-.339.804v2.286q0 .464.339.804t.804.339h2.286q.464 0 .804-.339t.339-.804zm18.286 13.714v-9.143q0-.464-.339-.804T24 18.285H10.286q-.464 0-.804.339t-.339.804v9.143q0 .464.339.804t.804.339H24q.464 0 .804-.339t.339-.804zM6.857 8V5.714q0-.464-.339-.804t-.804-.339H3.428q-.464 0-.804.339t-.339.804V8q0 .464.339.804t.804.339h2.286q.464 0 .804-.339T6.857 8zM32 28.571v-2.286q0-.464-.339-.804t-.804-.339h-2.286q-.464 0-.804.339t-.339.804v2.286q0 .464.339.804t.804.339h2.286q.464 0 .804-.339t.339-.804zm-6.857-13.714V5.714q0-.464-.339-.804T24 4.571H10.286q-.464 0-.804.339t-.339.804v9.143q0 .464.339.804t.804.339H24q.464 0 .804-.339t.339-.804zM32 21.714v-2.286q0-.464-.339-.804t-.804-.339h-2.286q-.464 0-.804.339t-.339.804v2.286q0 .464.339.804t.804.339h2.286q.464 0 .804-.339t.339-.804zm0-6.857v-2.286q0-.464-.339-.804t-.804-.339h-2.286q-.464 0-.804.339t-.339.804v2.286q0 .464.339.804t.804.339h2.286q.464 0 .804-.339t.339-.804zM32 8V5.714q0-.464-.339-.804t-.804-.339h-2.286q-.464 0-.804.339t-.339.804V8q0 .464.339.804t.804.339h2.286q.464 0 .804-.339T32 8zm2.286-2.857v24q0 1.179-.839 2.018T31.429 32H2.858q-1.179 0-2.018-.839t-.839-2.018v-24q0-1.179.839-2.018t2.018-.839h28.571q1.179 0 2.018.839t.839 2.018z"/></svg>