<!-- Generated by IcoMoon.io -->
<svg version="1.1" xmlns="http://www.w3.org/2000/svg" width="33" height="32" viewBox="0 0 33 32">
<title>flag</title>
<path d="M5.714 4.571q0 1.286-1.143 1.964v22.607q0 0.232-0.17 0.402t-0.402 0.17h-1.143q-0.232 0-0.402-0.17t-0.17-0.402v-22.607q-1.143-0.679-1.143-1.964 0-0.946 0.67-1.616t1.616-0.67 1.616 0.67 0.67 1.616zM32 5.714v13.625q0 0.446-0.223 0.688t-0.705 0.491q-3.839 2.071-6.589 2.071-1.089 0-2.205-0.393t-1.938-0.857-2.063-0.857-2.545-0.393q-3.429 0-8.286 2.607-0.304 0.161-0.589 0.161-0.464 0-0.804-0.339t-0.339-0.804v-13.25q0-0.571 0.554-0.982 0.375-0.25 1.411-0.768 4.214-2.143 7.518-2.143 1.911 0 3.571 0.518t3.911 1.571q0.679 0.339 1.571 0.339 0.964 0 2.098-0.375t1.964-0.839 1.571-0.839 0.973-0.375q0.464 0 0.804 0.339t0.339 0.804z"></path>
</svg>
