<svg version="1.1" xmlns="http://www.w3.org/2000/svg" width="33" height="32" viewBox="0 0 33 32" class="svg" focusable="false" aria-hidden="true" role="img"><path d="M5.714 4.571q0 1.286-1.143 1.964v22.607q0 .232-.17.402t-.402.17H2.856q-.232 0-.402-.17t-.17-.402V6.535q-1.143-.679-1.143-1.964 0-.946.67-1.616t1.616-.67 1.616.67.67 1.616zM32 5.714v13.625q0 .446-.223.688t-.705.491q-3.839 2.071-6.589 2.071-1.089 0-2.205-.393t-1.938-.857-2.063-.857-2.545-.393q-3.429 0-8.286 2.607-.304.161-.589.161-.464 0-.804-.339t-.339-.804V8.464q0-.571.554-.982.375-.25 1.411-.768 4.214-2.143 7.518-2.143 1.911 0 3.571.518t3.911 1.571q.679.339 1.571.339.964 0 2.098-.375t1.964-.839 1.571-.839.973-.375q.464 0 .804.339t.339.804z"/></svg>