<svg version="1.1" xmlns="http://www.w3.org/2000/svg" width="29" height="28" viewBox="0 0 29 28" class="svg" focusable="false" aria-hidden="true" role="img"><path d="M29.359 14.875c0 .375-.234.75-.484 1.031l-5.25 6.188C22.719 23.156 20.875 24 19.5 24h-17c-.562 0-1.359-.172-1.359-.875 0-.375.234-.75.484-1.031l5.25-6.188C7.781 14.844 9.625 14 11 14h17c.562 0 1.359.172 1.359.875zM24 9.5V12H11c-1.953 0-4.375 1.109-5.641 2.609L.015 20.89c0-.125-.016-.266-.016-.391v-15c0-1.922 1.578-3.5 3.5-3.5h5c1.922 0 3.5 1.578 3.5 3.5v.5h8.5c1.922 0 3.5 1.578 3.5 3.5z"/></svg>