<svg version="1.1" xmlns="http://www.w3.org/2000/svg" width="32" height="32" viewBox="0 0 32 32" class="svg" focusable="false" aria-hidden="true" role="img"><path d="M31.625 27.429q0 .946-.661 1.607l-1.911 1.929q-.696.661-1.625.661-.946 0-1.607-.661l-6.482-6.5q-.679-.643-.679-1.607 0-.946.768-1.714l-4.571-4.571-2.25 2.25q-.25.25-.607.25t-.607-.25q.036.036.223.214t.223.232.179.205.179.241.107.241.098.295.027.321q0 .679-.5 1.214-.054.054-.295.321t-.339.366-.33.295-.393.277-.393.161-.464.08q-.714 0-1.214-.5L1.215 15.5q-.5-.5-.5-1.214 0-.232.08-.464t.161-.393.277-.393.295-.33.366-.339.321-.295q.536-.5 1.214-.5.179 0 .321.027t.295.098.241.107.241.179.205.179.232.223.214.223q-.25-.25-.25-.607t.25-.607l6.214-6.214q.25-.25.607-.25t.607.25q-.036-.036-.223-.214t-.223-.232-.179-.205-.179-.241-.107-.241-.098-.295-.027-.321q0-.679.5-1.214.054-.054.295-.321t.339-.366.33-.295.393-.277.393-.161.464-.08q.714 0 1.214.5l7.286 7.286q.5.5.5 1.214 0 .232-.08.464t-.161.393-.277.393-.295.33-.366.339-.321.295q-.536.5-1.214.5-.179 0-.321-.027t-.295-.098-.241-.107-.241-.179-.205-.179-.232-.223-.214-.223q.25.25.25.607t-.25.607l-2.25 2.25 4.571 4.571q.768-.768 1.714-.768.929 0 1.625.661l6.482 6.482q.661.696.661 1.625z"/></svg>