<!-- Generated by IcoMoon.io -->
<svg version="1.1" xmlns="http://www.w3.org/2000/svg" width="32" height="32" viewBox="0 0 32 32">
<title>gavel</title>
<path d="M31.625 27.429q0 0.946-0.661 1.607l-1.911 1.929q-0.696 0.661-1.625 0.661-0.946 0-1.607-0.661l-6.482-6.5q-0.679-0.643-0.679-1.607 0-0.946 0.768-1.714l-4.571-4.571-2.25 2.25q-0.25 0.25-0.607 0.25t-0.607-0.25q0.036 0.036 0.223 0.214t0.223 0.232 0.179 0.205 0.179 0.241 0.107 0.241 0.098 0.295 0.027 0.321q0 0.679-0.5 1.214-0.054 0.054-0.295 0.321t-0.339 0.366-0.33 0.295-0.393 0.277-0.393 0.161-0.464 0.080q-0.714 0-1.214-0.5l-7.286-7.286q-0.5-0.5-0.5-1.214 0-0.232 0.080-0.464t0.161-0.393 0.277-0.393 0.295-0.33 0.366-0.339 0.321-0.295q0.536-0.5 1.214-0.5 0.179 0 0.321 0.027t0.295 0.098 0.241 0.107 0.241 0.179 0.205 0.179 0.232 0.223 0.214 0.223q-0.25-0.25-0.25-0.607t0.25-0.607l6.214-6.214q0.25-0.25 0.607-0.25t0.607 0.25q-0.036-0.036-0.223-0.214t-0.223-0.232-0.179-0.205-0.179-0.241-0.107-0.241-0.098-0.295-0.027-0.321q0-0.679 0.5-1.214 0.054-0.054 0.295-0.321t0.339-0.366 0.33-0.295 0.393-0.277 0.393-0.161 0.464-0.080q0.714 0 1.214 0.5l7.286 7.286q0.5 0.5 0.5 1.214 0 0.232-0.080 0.464t-0.161 0.393-0.277 0.393-0.295 0.33-0.366 0.339-0.321 0.295q-0.536 0.5-1.214 0.5-0.179 0-0.321-0.027t-0.295-0.098-0.241-0.107-0.241-0.179-0.205-0.179-0.232-0.223-0.214-0.223q0.25 0.25 0.25 0.607t-0.25 0.607l-2.25 2.25 4.571 4.571q0.768-0.768 1.714-0.768 0.929 0 1.625 0.661l6.482 6.482q0.661 0.696 0.661 1.625z"></path>
</svg>
