<svg version="1.1" xmlns="http://www.w3.org/2000/svg" width="31" height="32" viewBox="0 0 31 32" class="svg" focusable="false" aria-hidden="true" role="img"><path d="M27.946 2.286q1.161 0 1.964.813t.804 1.973v9.268q0 3.143-1.214 6t-3.259 4.911-4.893 3.259-5.973 1.205q-3.143 0-5.991-1.205t-4.902-3.259-3.268-4.911-1.214-6V5.072q0-1.143.821-1.964t1.964-.821h25.161zm-12.571 19q.839 0 1.464-.589l7.214-6.929q.661-.625.661-1.518 0-.875-.616-1.491t-1.491-.616q-.839 0-1.464.589l-5.768 5.536-5.768-5.536q-.625-.589-1.446-.589-.875 0-1.491.616t-.616 1.491q0 .911.643 1.518l7.232 6.929q.589.589 1.446.589z"/></svg>