<svg version="1.1" xmlns="http://www.w3.org/2000/svg" width="27" height="32" viewBox="0 0 27 32" class="svg" focusable="false" aria-hidden="true" role="img"><path d="M13.714 2.286q3.732 0 6.884 1.839t4.991 4.991T27.428 16q0 4.482-2.616 8.063t-6.759 4.955q-.482.089-.714-.125t-.232-.536l.009-1.366q.009-1.312.009-2.402 0-1.732-.929-2.536 1.018-.107 1.83-.321t1.679-.696 1.446-1.188.946-1.875.366-2.688q0-2.125-1.411-3.679.661-1.625-.143-3.643-.5-.161-1.446.196t-1.643.786l-.679.429q-1.661-.464-3.429-.464t-3.429.464q-.286-.196-.759-.482t-1.491-.688-1.518-.241q-.804 2.018-.143 3.643-1.411 1.554-1.411 3.679 0 1.518.366 2.679t.938 1.875 1.438 1.196 1.679.696 1.83.321q-.696.643-.875 1.839-.375.179-.804.268t-1.018.089-1.17-.384-.991-1.116q-.339-.571-.866-.929t-.884-.429l-.357-.054q-.375 0-.518.08t-.089.205.161.25.232.214l.125.089q.393.179.777.679t.563.911l.179.411q.232.679.786 1.098t1.196.536 1.241.125.991-.063l.411-.071q0 .679.009 1.58t.009.973q0 .321-.232.536t-.714.125q-4.143-1.375-6.759-4.955t-2.616-8.063q0-3.732 1.839-6.884t4.991-4.991 6.884-1.839zM5.196 21.982q.054-.125-.125-.214-.179-.054-.232.036-.054.125.125.214.161.107.232-.036zm.554.607q.125-.089-.036-.286-.179-.161-.286-.054-.125.089.036.286.179.179.286.054zm.536.804q.161-.125 0-.339-.143-.232-.304-.107-.161.089 0 .321t.304.125zm.75.75q.143-.143-.071-.339-.214-.214-.357-.054-.161.143.071.339.214.214.357.054zm1.018.446q.054-.196-.232-.286-.268-.071-.339.125t.232.268q.268.107.339-.107zm1.125.09q0-.232-.304-.196-.286 0-.286.196 0 .232.304.196.286 0 .286-.196zm1.035-.179q-.036-.196-.321-.161-.286.054-.25.268t.321.143.25-.25z"/></svg>