<svg version="1.1" xmlns="http://www.w3.org/2000/svg" width="41" height="32" viewBox="0 0 41 32" class="svg" focusable="false" aria-hidden="true" role="img"><path d="M25.661 16.304q0 3.714-1.554 6.616t-4.429 4.536-6.589 1.634q-2.661 0-5.089-1.036t-4.179-2.786-2.786-4.179T-.001 16t1.036-5.089 2.786-4.179T8 3.946t5.089-1.036q5.107 0 8.768 3.429L18.303 9.75q-2.089-2.018-5.214-2.018-2.196 0-4.063 1.107t-2.955 3.009T4.982 16t1.089 4.152 2.955 3.009 4.063 1.107q1.482 0 2.723-.411t2.045-1.027 1.402-1.402.875-1.482.384-1.321h-7.429v-4.5h12.357q.214 1.125.214 2.179zm15.482-2.179v3.75h-3.732v3.732h-3.75v-3.732h-3.732v-3.75h3.732v-3.732h3.75v3.732h3.732z"/></svg>