<svg version="1.1" xmlns="http://www.w3.org/2000/svg" width="28" height="28" viewBox="0 0 28 28" class="svg" focusable="false" aria-hidden="true" role="img"><path d="M15.484 16l1-4h-3.969l-1 4h3.969zm12-7.875l-.875 3.5a.502.502 0 0 1-.484.375h-5.109l-1 4h4.859c.156 0 .297.078.391.187.094.125.141.281.094.438l-.875 3.5a.488.488 0 0 1-.484.375h-5.109l-1.266 5.125a.516.516 0 0 1-.484.375h-3.5a.555.555 0 0 1-.406-.187.543.543 0 0 1-.094-.438l1.219-4.875h-3.969l-1.266 5.125a.516.516 0 0 1-.484.375H5.126a.55.55 0 0 1-.391-.187.543.543 0 0 1-.094-.438L5.86 20.5H1.001a.524.524 0 0 1-.391-.187.543.543 0 0 1-.094-.438l.875-3.5A.502.502 0 0 1 1.875 16h5.109l1-4H3.125a.524.524 0 0 1-.391-.187c-.094-.125-.141-.281-.094-.438l.875-3.5a.488.488 0 0 1 .484-.375h5.109l1.266-5.125a.52.52 0 0 1 .5-.375h3.5a.55.55 0 0 1 .391.187.543.543 0 0 1 .094.438L13.64 7.5h3.969l1.266-5.125a.52.52 0 0 1 .5-.375h3.5a.55.55 0 0 1 .391.187.543.543 0 0 1 .094.438L22.141 7.5H27c.156 0 .297.078.391.187a.543.543 0 0 1 .094.438z"/></svg>