<!-- Generated by IcoMoon.io -->
<svg version="1.1" xmlns="http://www.w3.org/2000/svg" width="28" height="28" viewBox="0 0 28 28">
<title>hashtag</title>
<path d="M15.484 16l1-4h-3.969l-1 4h3.969zM27.484 8.125l-0.875 3.5c-0.063 0.219-0.25 0.375-0.484 0.375h-5.109l-1 4h4.859c0.156 0 0.297 0.078 0.391 0.187 0.094 0.125 0.141 0.281 0.094 0.438l-0.875 3.5c-0.047 0.219-0.25 0.375-0.484 0.375h-5.109l-1.266 5.125c-0.063 0.219-0.266 0.375-0.484 0.375h-3.5c-0.156 0-0.313-0.078-0.406-0.187-0.094-0.125-0.125-0.281-0.094-0.438l1.219-4.875h-3.969l-1.266 5.125c-0.063 0.219-0.266 0.375-0.484 0.375h-3.516c-0.141 0-0.297-0.078-0.391-0.187-0.094-0.125-0.125-0.281-0.094-0.438l1.219-4.875h-4.859c-0.156 0-0.297-0.078-0.391-0.187-0.094-0.125-0.125-0.281-0.094-0.438l0.875-3.5c0.063-0.219 0.25-0.375 0.484-0.375h5.109l1-4h-4.859c-0.156 0-0.297-0.078-0.391-0.187-0.094-0.125-0.141-0.281-0.094-0.438l0.875-3.5c0.047-0.219 0.25-0.375 0.484-0.375h5.109l1.266-5.125c0.063-0.219 0.266-0.375 0.5-0.375h3.5c0.141 0 0.297 0.078 0.391 0.187 0.094 0.125 0.125 0.281 0.094 0.438l-1.219 4.875h3.969l1.266-5.125c0.063-0.219 0.266-0.375 0.5-0.375h3.5c0.141 0 0.297 0.078 0.391 0.187 0.094 0.125 0.125 0.281 0.094 0.438l-1.219 4.875h4.859c0.156 0 0.297 0.078 0.391 0.187 0.094 0.125 0.125 0.281 0.094 0.438z"></path>
</svg>
