<!-- Generated by IcoMoon.io -->
<svg version="1.1" xmlns="http://www.w3.org/2000/svg" width="32" height="32" viewBox="0 0 32 32">
<title>heart</title>
<path d="M16 29.714q-0.464 0-0.786-0.321l-11.143-10.75q-0.179-0.143-0.491-0.464t-0.991-1.17-1.214-1.741-0.955-2.161-0.42-2.464q0-3.929 2.268-6.143t6.268-2.214q1.107 0 2.259 0.384t2.143 1.036 1.705 1.223 1.357 1.214q0.643-0.643 1.357-1.214t1.705-1.223 2.143-1.036 2.259-0.384q4 0 6.268 2.214t2.268 6.143q0 3.946-4.089 8.036l-11.125 10.714q-0.321 0.321-0.786 0.321z"></path>
</svg>
