<svg version="1.1" xmlns="http://www.w3.org/2000/svg" width="11" height="32" viewBox="0 0 11 32" class="svg" focusable="false" aria-hidden="true" role="img"><path d="M11.429 24v2.286q0 .464-.339.804t-.804.339H1.143q-.464 0-.804-.339T0 26.286V24q0-.464.339-.804t.804-.339h1.143V16H1.143q-.464 0-.804-.339T0 14.857v-2.286q0-.464.339-.804t.804-.339H8q.464 0 .804.339t.339.804v10.286h1.143q.464 0 .804.339t.339.804zM9.143 3.429v3.429q0 .464-.339.804T8 8.001H3.429q-.464 0-.804-.339t-.339-.804V3.429q0-.464.339-.804t.804-.339H8q.464 0 .804.339t.339.804z"/></svg>