<svg version="1.1" xmlns="http://www.w3.org/2000/svg" width="32" height="32" viewBox="0 0 32 32" class="svg" focusable="false" aria-hidden="true" role="img"><path d="M22.857 12.571q0-.464-.339-.804t-.804-.339q-3.071 0-5.679.884t-4.634 2.393-4.205 3.92q-.339.375-.339.804 0 .464.339.804t.804.339q.429 0 .804-.339.482-.429 1.321-1.268t1.196-1.179q2.446-2.214 4.795-3.143t5.598-.929q.464 0 .804-.339t.339-.804zM32 9.036q0 1.696-.357 3.446-.821 4-3.295 6.839t-6.384 4.786q-3.821 1.929-7.821 1.929-2.643 0-5.107-.839-.268-.089-1.571-.75t-1.714-.661q-.286 0-.705.571t-.804 1.25-.938 1.25-1.071.571q-.536 0-.911-.196t-.554-.429-.482-.75q-.036-.071-.107-.196t-.098-.179-.054-.17T0 25.267q0-.625.554-1.313t1.214-1.17 1.214-1 .554-.857q0-.071-.25-.679T3 19.462q-.161-.911-.161-1.857 0-2.054.777-3.929t2.125-3.295 3.045-2.482 3.643-1.705q.982-.321 2.589-.455t3.205-.161 3.188-.107 2.92-.429 2.027-1.009l.527-.527.527-.5.482-.357.652-.286.777-.08q.696 0 1.259.821t.848 2 .429 2.214.143 1.714z"/></svg>