<svg version="1.1" xmlns="http://www.w3.org/2000/svg" width="27" height="32" viewBox="0 0 27 32" class="svg" focusable="false" aria-hidden="true" role="img"><path d="M6.232 11.161v17.696H.339V11.161h5.893zm.375-5.465Q6.625 7 5.705 7.875t-2.42.875h-.036q-1.464 0-2.357-.875t-.893-2.179q0-1.321.92-2.188t2.402-.866 2.375.866.911 2.188zm20.822 13.018v10.143h-5.875v-9.464q0-1.875-.723-2.938t-2.259-1.063q-1.125 0-1.884.616t-1.134 1.527q-.196.536-.196 1.446v9.875H9.483q.036-7.125.036-11.554t-.018-5.286l-.018-.857h5.875v2.571h-.036q.357-.571.732-1t1.009-.929 1.554-.777 2.045-.277q3.054 0 4.911 2.027t1.857 5.938z"/></svg>