<svg version="1.1" xmlns="http://www.w3.org/2000/svg" width="27" height="32" viewBox="0 0 27 32" class="svg" focusable="false" aria-hidden="true" role="img"><path d="M23.411 15.036v2.036q0 .429-.241.679t-.67.25h-3.607q-.429 0-.679-.25t-.25-.679v-2.036q0-.429.25-.679t.679-.25H22.5q.429 0 .67.25t.241.679zm-8.75 4.107v-4.464q0-.946-.58-1.527t-1.527-.58h-2.375q-1.214 0-1.714.929-.5-.929-1.714-.929H4.43q-.946 0-1.527.58t-.58 1.527v4.464q0 .393.375.393h.982q.393 0 .393-.393v-4.107q0-.429.241-.679t.688-.25h1.679q.429 0 .679.25t.25.679v4.107q0 .393.375.393h.964q.393 0 .393-.393v-4.107q0-.429.25-.679t.679-.25h1.732q.429 0 .67.25t.241.679v4.107q0 .393.393.393h.982q.375 0 .375-.393zm10.518-1.714v-2.75q0-.946-.589-1.527t-1.536-.58H18.34q-.946 0-1.536.58t-.589 1.527V22q0 .375.393.375h.982q.375 0 .375-.375v-3.214q.554.75 1.679.75h3.411q.946 0 1.536-.58t.589-1.527zm2.25-11v19.143q0 1.714-1.214 2.929t-2.929 1.214H4.143q-1.714 0-2.929-1.214T0 25.572V6.429Q0 4.715 1.214 3.5t2.929-1.214h19.143q1.714 0 2.929 1.214t1.214 2.929z"/></svg>