<svg version="1.1" xmlns="http://www.w3.org/2000/svg" width="32" height="32" viewBox="0 0 32 32" class="svg" focusable="false" aria-hidden="true" role="img"><path d="M10.661 7.518v20.946q0 .446-.223.759t-.652.313q-.304 0-.589-.143L.893 25.232q-.375-.179-.634-.598T0 23.804V3.447q0-.357.179-.607t.518-.25q.25 0 .786.268l9.125 4.571q.054.054.054.089zm1.143 1.803l9.536 15.464-9.536-4.75V9.321zM32 9.643v18.821q0 .446-.25.723t-.679.277-.839-.232l-7.875-3.929zM31.946 7.5q0 .054-4.58 7.491T22 23.696l-6.964-11.321 5.786-9.411q.304-.5.929-.5.25 0 .464.107l9.661 4.821q.071.036.071.107z"/></svg>