<svg version="1.1" xmlns="http://www.w3.org/2000/svg" width="21" height="32" viewBox="0 0 21 32" class="svg" focusable="false" aria-hidden="true" role="img"><path d="M20.571 12.571v2.286q0 3.946-2.634 6.866t-6.509 3.348v2.357h4.571q.464 0 .804.339t.339.804-.339.804-.804.339H4.57q-.464 0-.804-.339t-.339-.804.339-.804.804-.339h4.571v-2.357q-3.875-.429-6.509-3.348t-2.634-6.866v-2.286q0-.464.339-.804t.804-.339.804.339.339.804v2.286q0 3.304 2.348 5.652t5.652 2.348 5.652-2.348 2.348-5.652v-2.286q0-.464.339-.804t.804-.339.804.339.339.804zM16 5.714v9.143q0 2.357-1.679 4.036t-4.036 1.679-4.036-1.679-1.679-4.036V5.714q0-2.357 1.679-4.036t4.036-1.679 4.036 1.679T16 5.714z"/></svg>