<svg version="1.1" xmlns="http://www.w3.org/2000/svg" width="32" height="32" viewBox="0 0 32 32" class="svg" focusable="false" aria-hidden="true" role="img"><path d="M28.839 0q1.25 0 2.188.83t.938 2.08q0 1.125-.804 2.696-5.929 11.232-8.304 13.429-1.732 1.625-3.893 1.625-2.25 0-3.866-1.652t-1.616-3.92q0-2.286 1.643-3.786L26.518.963q1.054-.964 2.321-.964zM12.607 18.464q.696 1.357 1.902 2.321t2.688 1.357l.018 1.268q.071 3.804-2.313 6.196t-6.223 2.393q-2.196 0-3.893-.83t-2.723-2.277-1.545-3.268T0 21.695q.125.089.732.536t1.107.795 1.054.652.821.304q.732 0 .982-.661.446-1.179 1.027-2.009t1.241-1.357 1.571-.848 1.839-.455 2.232-.188z"/></svg>