<svg version="1.1" xmlns="http://www.w3.org/2000/svg" width="27" height="32" viewBox="0 0 27 32" class="svg" focusable="false" aria-hidden="true" role="img"><path d="M6.482 27.429l1.625-1.625-4.196-4.196-1.625 1.625v1.911h2.286v2.286h1.911zm9.339-16.572q0-.393-.393-.393-.179 0-.304.125l-9.679 9.679q-.125.125-.125.304 0 .393.393.393.179 0 .304-.125l9.679-9.679q.125-.125.125-.304zm-.964-3.428l7.429 7.429L7.429 29.715H0v-7.429zm12.197 1.714q0 .946-.661 1.607l-2.964 2.964L16 6.285l2.964-2.946q.643-.679 1.607-.679.946 0 1.625.679l4.196 4.179q.661.696.661 1.625z"/></svg>