<!-- Generated by IcoMoon.io -->
<svg version="1.1" xmlns="http://www.w3.org/2000/svg" width="25" height="32" viewBox="0 0 25 32">
<title>plane</title>
<path d="M24.571 2.857q0.786 0.929 0.214 2.643t-1.929 3.071l-2.875 2.875 2.857 12.429q0.089 0.339-0.214 0.589l-2.286 1.714q-0.125 0.107-0.339 0.107-0.071 0-0.125-0.018-0.268-0.054-0.375-0.286l-4.982-9.071-4.625 4.625 0.946 3.464q0.089 0.304-0.143 0.554l-1.714 1.714q-0.161 0.161-0.411 0.161h-0.036q-0.268-0.036-0.429-0.232l-3.375-4.5-4.5-3.375q-0.196-0.125-0.232-0.411-0.018-0.232 0.161-0.446l1.714-1.732q0.161-0.161 0.411-0.161 0.107 0 0.143 0.018l3.464 0.946 4.625-4.625-9.071-4.982q-0.25-0.143-0.304-0.429-0.036-0.286 0.161-0.482l2.286-2.286q0.25-0.232 0.536-0.143l11.875 2.839 2.857-2.857q1.357-1.357 3.071-1.929t2.643 0.214z"></path>
</svg>
