<svg version="1.1" xmlns="http://www.w3.org/2000/svg" width="25" height="32" viewBox="0 0 25 32" class="svg" focusable="false" aria-hidden="true" role="img"><path d="M24.571 2.857q.786.929.214 2.643t-1.929 3.071l-2.875 2.875 2.857 12.429q.089.339-.214.589l-2.286 1.714q-.125.107-.339.107-.071 0-.125-.018-.268-.054-.375-.286l-4.982-9.071-4.625 4.625.946 3.464q.089.304-.143.554l-1.714 1.714q-.161.161-.411.161h-.036q-.268-.036-.429-.232l-3.375-4.5-4.5-3.375q-.196-.125-.232-.411-.018-.232.161-.446l1.714-1.732q.161-.161.411-.161.107 0 .143.018l3.464.946 4.625-4.625-9.071-4.982q-.25-.143-.304-.429-.036-.286.161-.482l2.286-2.286q.25-.232.536-.143l11.875 2.839 2.857-2.857q1.357-1.357 3.071-1.929t2.643.214z"/></svg>