<svg version="1.1" xmlns="http://www.w3.org/2000/svg" width="32" height="32" viewBox="0 0 32 32" class="svg" focusable="false" aria-hidden="true" role="img"><path d="M32 15.107q0 1.036-.527 1.884t-1.42 1.295q.214.821.214 1.714 0 2.768-1.902 5.125t-5.188 3.723-7.143 1.366T8.9 28.848t-5.179-3.723T1.819 20q0-.839.196-1.679-.911-.446-1.464-1.313t-.554-1.902q0-1.464 1.036-2.509t2.518-1.045q1.518 0 2.589 1.125 3.893-2.714 9.196-2.893L17.407.48q.054-.232.268-.375t.464-.089l6.589 1.446q.321-.661.964-1.063t1.411-.402q1.107 0 1.893.777t.786 1.884-.786 1.893-1.893.786-1.884-.777-.777-1.884l-5.964-1.321-1.857 8.429q5.357.161 9.268 2.857 1.036-1.089 2.554-1.089 1.482 0 2.518 1.045t1.036 2.509zM7.464 18.661q0 1.107.777 1.893t1.884.786 1.893-.786.786-1.893-.786-1.884T10.125 16q-1.089 0-1.875.786t-.786 1.875zM21.929 25q.196-.196.196-.464t-.196-.464q-.179-.179-.446-.179t-.464.179q-.732.75-2.161 1.107t-2.857.357-2.857-.357-2.161-1.107q-.196-.179-.464-.179t-.446.179q-.196.179-.196.455t.196.473q.768.768 2.116 1.214t2.188.527 1.625.08 1.625-.08 2.188-.527T21.931 25zm-.054-3.661q1.107 0 1.884-.786t.777-1.893q0-1.089-.786-1.875t-1.875-.786q-1.107 0-1.893.777t-.786 1.884.786 1.893 1.893.786z"/></svg>