<!-- Generated by IcoMoon.io -->
<svg version="1.1" xmlns="http://www.w3.org/2000/svg" width="34" height="32" viewBox="0 0 34 32">
<title>road</title>
<path d="M19.839 17.786v-0.071l-0.429-5.714q-0.018-0.232-0.196-0.402t-0.411-0.17h-3.321q-0.232 0-0.411 0.17t-0.196 0.402l-0.429 5.714v0.071q-0.018 0.214 0.143 0.357t0.375 0.143h4.357q0.214 0 0.375-0.143t0.143-0.357zM33.393 26.125q0 1.304-0.821 1.304h-12.571q0.232 0 0.393-0.17t0.143-0.402l-0.357-4.571q-0.018-0.232-0.196-0.402t-0.411-0.17h-4.857q-0.232 0-0.411 0.17t-0.196 0.402l-0.357 4.571q-0.018 0.232 0.143 0.402t0.393 0.17h-12.571q-0.821 0-0.821-1.304 0-0.964 0.464-2.071l7.446-18.643q0.143-0.339 0.464-0.589t0.679-0.25h6.054q-0.232 0-0.411 0.17t-0.196 0.402l-0.268 3.429q-0.018 0.25 0.143 0.411t0.393 0.161h2.964q0.232 0 0.393-0.161t0.143-0.411l-0.268-3.429q-0.018-0.232-0.196-0.402t-0.411-0.17h6.054q0.357 0 0.679 0.25t0.464 0.589l7.446 18.643q0.464 1.107 0.464 2.071z"></path>
</svg>
