<svg version="1.1" xmlns="http://www.w3.org/2000/svg" width="34" height="32" viewBox="0 0 34 32" class="svg" focusable="false" aria-hidden="true" role="img"><path d="M19.839 17.786v-.071l-.429-5.714q-.018-.232-.196-.402t-.411-.17h-3.321q-.232 0-.411.17t-.196.402l-.429 5.714v.071q-.018.214.143.357t.375.143h4.357q.214 0 .375-.143t.143-.357zm13.554 8.339q0 1.304-.821 1.304H20.001q.232 0 .393-.17t.143-.402l-.357-4.571q-.018-.232-.196-.402t-.411-.17h-4.857q-.232 0-.411.17t-.196.402l-.357 4.571q-.018.232.143.402t.393.17H1.717q-.821 0-.821-1.304 0-.964.464-2.071L8.806 5.411q.143-.339.464-.589t.679-.25h6.054q-.232 0-.411.17t-.196.402l-.268 3.429q-.018.25.143.411t.393.161h2.964q.232 0 .393-.161t.143-.411l-.268-3.429q-.018-.232-.196-.402t-.411-.17h6.054q.357 0 .679.25t.464.589l7.446 18.643q.464 1.107.464 2.071z"/></svg>