<svg version="1.1" xmlns="http://www.w3.org/2000/svg" width="30" height="32" viewBox="0 0 30 32" class="svg" focusable="false" aria-hidden="true" role="img"><path d="M25.714 8q0-.714-.5-1.214T24 6.286t-1.214.5-.5 1.214.5 1.214 1.214.5 1.214-.5.5-1.214zm4-5.143q0 4.446-1.348 7.687t-4.527 6.438q-1.446 1.429-3.482 3.143L20 26.893q-.036.286-.286.464l-6.857 4q-.125.071-.286.071-.214 0-.411-.161l-1.143-1.143q-.232-.25-.143-.571l1.518-4.929-5.018-5.018-4.929 1.518q-.054.018-.161.018-.25 0-.411-.161L.73 19.838q-.304-.339-.089-.696l4-6.857q.179-.25.464-.286l6.768-.357q1.714-2.036 3.143-3.482 3.357-3.339 6.393-4.607t7.696-1.268q.25 0 .429.17t.179.402z"/></svg>