<svg version="1.1" xmlns="http://www.w3.org/2000/svg" width="30" height="32" viewBox="0 0 30 32" class="svg" focusable="false" aria-hidden="true" role="img"><path d="M20.571 14.857q0-3.304-2.348-5.652t-5.652-2.348-5.652 2.348-2.348 5.652 2.348 5.652 5.652 2.348 5.652-2.348 2.348-5.652zm9.143 14.857q0 .929-.679 1.607T27.428 32q-.964 0-1.607-.679l-6.125-6.107q-3.196 2.214-7.125 2.214-2.554 0-4.884-.991t-4.018-2.679T.99 19.74t-.991-4.884.991-4.884 2.679-4.018 4.018-2.679 4.884-.991 4.884.991 4.018 2.679 2.679 4.018.991 4.884q0 3.929-2.214 7.125l6.125 6.125q.661.661.661 1.607z"/></svg>