<svg version="1.1" xmlns="http://www.w3.org/2000/svg" width="27" height="32" viewBox="0 0 27 32" class="svg" focusable="false" aria-hidden="true" role="img"><path d="M21.714 18.286q2.375 0 4.045 1.67t1.67 4.045-1.67 4.045-4.045 1.67-4.045-1.67-1.67-4.045q0-.214.036-.607L9.606 20.18q-1.643 1.536-3.893 1.536-2.375 0-4.045-1.67t-1.67-4.045 1.67-4.045 4.045-1.67q2.25 0 3.893 1.536l6.429-3.214q-.036-.393-.036-.607 0-2.375 1.67-4.045t4.045-1.67 4.045 1.67 1.67 4.045-1.67 4.045-4.045 1.67q-2.25 0-3.893-1.536l-6.429 3.214q.036.393.036.607t-.036.607l6.429 3.214q1.643-1.536 3.893-1.536z"/></svg>