<svg version="1.1" xmlns="http://www.w3.org/2000/svg" width="23" height="32" viewBox="0 0 23 32" class="svg" focusable="false" aria-hidden="true" role="img"><path d="M19.429 17.143V5.714h-8v20.304q2.125-1.125 3.804-2.446 4.196-3.286 4.196-6.429zm3.428-13.714v13.714q0 1.536-.598 3.045t-1.482 2.679-2.107 2.277-2.259 1.839-2.161 1.384-1.598.884-.759.357q-.214.107-.464.107t-.464-.107q-.286-.125-.759-.357t-1.598-.884-2.161-1.384-2.259-1.839-2.107-2.277-1.482-2.679-.598-3.045V3.429q0-.464.339-.804t.804-.339h20.571q.464 0 .804.339t.339.804z"/></svg>