<svg version="1.1" xmlns="http://www.w3.org/2000/svg" width="30" height="32" viewBox="0 0 30 32" class="svg" focusable="false" aria-hidden="true" role="img"><path d="M11.429 27.429q0 .929-.679 1.607t-1.607.679-1.607-.679-.679-1.607.679-1.607 1.607-.679 1.607.679.679 1.607zm16 0q0 .929-.679 1.607t-1.607.679-1.607-.679-.679-1.607.679-1.607 1.607-.679 1.607.679.679 1.607zM29.714 8v9.143q0 .429-.295.759t-.723.384l-18.643 2.179q.232 1.071.232 1.25 0 .286-.429 1.143h16.429q.464 0 .804.339t.339.804-.339.804-.804.339H7.999q-.464 0-.804-.339t-.339-.804q0-.196.143-.563t.286-.643.384-.714.277-.527L4.785 6.858H1.142q-.464 0-.804-.339t-.339-.804.339-.804.804-.339h4.571q.286 0 .509.116t.348.277.232.438.143.464.098.527.08.464h21.446q.464 0 .804.339t.339.804z"/></svg>