<!-- Generated by IcoMoon.io -->
<svg version="1.1" xmlns="http://www.w3.org/2000/svg" width="30" height="32" viewBox="0 0 30 32">
<title>shopping-cart</title>
<path d="M11.429 27.429q0 0.929-0.679 1.607t-1.607 0.679-1.607-0.679-0.679-1.607 0.679-1.607 1.607-0.679 1.607 0.679 0.679 1.607zM27.429 27.429q0 0.929-0.679 1.607t-1.607 0.679-1.607-0.679-0.679-1.607 0.679-1.607 1.607-0.679 1.607 0.679 0.679 1.607zM29.714 8v9.143q0 0.429-0.295 0.759t-0.723 0.384l-18.643 2.179q0.232 1.071 0.232 1.25 0 0.286-0.429 1.143h16.429q0.464 0 0.804 0.339t0.339 0.804-0.339 0.804-0.804 0.339h-18.286q-0.464 0-0.804-0.339t-0.339-0.804q0-0.196 0.143-0.563t0.286-0.643 0.384-0.714 0.277-0.527l-3.161-14.696h-3.643q-0.464 0-0.804-0.339t-0.339-0.804 0.339-0.804 0.804-0.339h4.571q0.286 0 0.509 0.116t0.348 0.277 0.232 0.438 0.143 0.464 0.098 0.527 0.080 0.464h21.446q0.464 0 0.804 0.339t0.339 0.804z"></path>
</svg>
