<svg version="1.1" xmlns="http://www.w3.org/2000/svg" width="32" height="32" viewBox="0 0 32 32" class="svg" focusable="false" aria-hidden="true" role="img"><path d="M4.571 25.714v3.429q0 .25-.161.411t-.411.161H.57q-.25 0-.411-.161t-.161-.411v-3.429q0-.25.161-.411t.411-.161h3.429q.25 0 .411.161t.161.411zm6.858-2.285v5.714q0 .25-.161.411t-.411.161H7.428q-.25 0-.411-.161t-.161-.411v-5.714q0-.25.161-.411t.411-.161h3.429q.25 0 .411.161t.161.411zm6.857-4.572v10.286q0 .25-.161.411t-.411.161h-3.429q-.25 0-.411-.161t-.161-.411V18.857q0-.25.161-.411t.411-.161h3.429q.25 0 .411.161t.161.411zM25.143 12v17.143q0 .25-.161.411t-.411.161h-3.429q-.25 0-.411-.161t-.161-.411V12q0-.25.161-.411t.411-.161h3.429q.25 0 .411.161t.161.411zM32 2.857v26.286q0 .25-.161.411t-.411.161h-3.429q-.25 0-.411-.161t-.161-.411V2.857q0-.25.161-.411t.411-.161h3.429q.25 0 .411.161t.161.411z"/></svg>