<svg version="1.1" xmlns="http://www.w3.org/2000/svg" width="27" height="32" viewBox="0 0 27 32" class="svg" focusable="false" aria-hidden="true" role="img"><path d="M20.946 18.982q0-.893-.348-1.634t-.866-1.223-1.304-.875-1.473-.607-1.563-.411l-1.857-.429q-.536-.125-.786-.188t-.625-.205-.536-.286-.295-.375-.134-.536q0-1.375 2.571-1.375.768 0 1.375.214t.964.509.679.598.714.518.857.214q.839 0 1.348-.571t.509-1.375q0-.982-1-1.777T16.64 7.963t-3.25-.411q-1.214 0-2.357.277t-2.134.839-1.589 1.554-.598 2.295q0 1.089.339 1.902t1 1.348 1.429.866 1.839.58l2.607.643q1.607.393 2 .643.571.357.571 1.071 0 .696-.714 1.152t-1.875.455q-.911 0-1.634-.286t-1.161-.688-.813-.804-.821-.688-.964-.286q-.893 0-1.348.536T6.712 20.3q0 1.643 2.179 2.813t5.196 1.17q1.304 0 2.5-.33t2.188-.955 1.58-1.67.589-2.348zm6.483 3.875q0 2.839-2.009 4.848t-4.848 2.009q-2.321 0-4.179-1.429-1.375.286-2.679.286-2.554 0-4.884-.991t-4.018-2.679-2.679-4.018-.991-4.884q0-1.304.286-2.679-1.429-1.857-1.429-4.179 0-2.839 2.009-4.848t4.848-2.009q2.321 0 4.179 1.429 1.375-.286 2.679-.286 2.554 0 4.884.991t4.018 2.679 2.679 4.018.991 4.884q0 1.304-.286 2.679 1.429 1.857 1.429 4.179z"/></svg>