<svg version="1.1" xmlns="http://www.w3.org/2000/svg" width="32" height="32" viewBox="0 0 32 32" class="svg" focusable="false" aria-hidden="true" role="img"><path d="M15.589 13.214q0 1.482-1.134 2.545t-2.723 1.063-2.723-1.063-1.134-2.545q0-1.5 1.134-2.554t2.723-1.054 2.723 1.054 1.134 2.554zm8.965 0q0 1.482-1.125 2.545t-2.732 1.063q-1.589 0-2.723-1.063t-1.134-2.545q0-1.5 1.134-2.554t2.723-1.054q1.607 0 2.732 1.054t1.125 2.554zm4.017 3.215V4.518q0-1.554-.571-2.205t-1.982-.652H6.161q-1.482 0-2.009.607t-.527 2.25v12.018q.768.411 1.58.714t1.446.5 1.446.33 1.268.196 1.25.071 1.045.009 1.009-.036.795-.036q1.214-.018 1.696.482.107.107.179.161.464.446 1.089.911.125-1.625 2.107-1.554.089 0 .652.027t.768.036.813.018.946-.018.973-.08 1.089-.152 1.107-.241 1.196-.348 1.205-.482 1.286-.616zm2.911-.09q-2.161 2.661-6.643 4.5 1.5 5.089-.411 8.304-1.179 2.018-3.268 2.643-1.857.571-3.25-.268-1.536-.911-1.464-2.929l-.018-5.821v-.018q-.143-.036-.438-.107t-.42-.089l-.018 6.036q.071 2.036-1.482 2.929-1.411.839-3.268.268-2.089-.643-3.25-2.679-1.875-3.214-.393-8.268-4.482-1.839-6.643-4.5-.446-.661-.071-1.125t1.071.018q.054.036.196.125t.196.143V3.108q0-1.286.839-2.196T4.783.001h22.446q1.196 0 2.036.911t.839 2.196v12.393l.375-.268q.696-.482 1.071-.018t-.071 1.125z"/></svg>