<svg version="1.1" xmlns="http://www.w3.org/2000/svg" width="30" height="32" viewBox="0 0 30 32" class="svg" focusable="false" aria-hidden="true" role="img"><path d="M15.143 2.286q2.393-.018 4.295 1.223t2.92 3.438q.482 1.036.482 3.196 0 .839-.161 3.411.25.125.5.125.321 0 .911-.241t.911-.241q.518 0 1 .321t.482.821q0 .571-.563.964t-1.232.563-1.232.518-.563.848q0 .268.214.768.661 1.464 1.83 2.679t2.58 1.804q.5.214 1.429.411.5.107.5.625 0 1.25-3.911 1.839-.125.196-.196.696t-.25.83-.589.33q-.357 0-1.107-.116t-1.143-.116q-.661 0-1.107.089-.571.089-1.125.402t-1.036.679-1.036.723-1.357.598-1.768.241q-.929 0-1.723-.241t-1.339-.598-1.027-.723-1.036-.679-1.107-.402q-.464-.089-1.125-.089-.429 0-1.17.134t-1.045.134q-.446 0-.625-.33t-.25-.848-.196-.714Q.267 24.769.267 23.519q0-.518.5-.625.929-.196 1.429-.411 1.393-.571 2.58-1.804T6.606 18q.214-.5.214-.768 0-.5-.563-.848t-1.241-.527-1.241-.563-.563-.938q0-.482.464-.813t.982-.33q.268 0 .857.232t.946.232q.321 0 .571-.125-.161-2.536-.161-3.393 0-2.179.482-3.214 1.143-2.446 3.071-3.536t4.714-1.125z"/></svg>