<svg version="1.1" xmlns="http://www.w3.org/2000/svg" width="41" height="32" viewBox="0 0 41 32" class="svg" focusable="false" aria-hidden="true" role="img"><path d="M14 24.5l.286-4.304L14 10.857q-.018-.179-.134-.304t-.295-.125q-.161 0-.286.125t-.125.304l-.25 9.339.25 4.304q.018.179.134.295t.277.116q.393 0 .429-.411zm5.286-.518l.196-3.768-.214-10.464q0-.286-.232-.429-.143-.089-.286-.089t-.286.089q-.232.143-.232.429l-.018.107-.179 10.339.196 4.214v.018q0 .179.107.304.161.196.411.196.196 0 .357-.161.161-.125.161-.357zM.625 17.911l.357 2.286-.357 2.25q-.036.161-.161.161t-.161-.161l-.304-2.25.304-2.286q.036-.161.161-.161t.161.161zM2.161 16.5l.464 3.696-.464 3.625q-.036.161-.179.161-.161 0-.161-.179l-.411-3.607.411-3.696q0-.161.161-.161.143 0 .179.161zm1.643-.679l.446 4.375-.446 4.232q0 .196-.196.196-.179 0-.214-.196l-.375-4.232.375-4.375q.036-.214.214-.214.196 0 .196.214zm1.678-.125l.411 4.5-.411 4.357q-.036.232-.25.232-.232 0-.232-.232l-.375-4.357.375-4.5q0-.232.232-.232.214 0 .25.232zm1.679.322l.375 4.179-.375 4.393q-.036.286-.286.286-.107 0-.188-.08t-.08-.205l-.357-4.393.357-4.179q0-.107.08-.188t.188-.08q.25 0 .286.268zm1.678-2.607l.375 6.786-.375 4.393q0 .125-.089.223t-.214.098q-.286 0-.321-.321l-.321-4.393.321-6.786q.036-.321.321-.321.125 0 .214.098t.089.223zm1.679-1.536l.339 8.357-.339 4.357q0 .143-.098.241t-.241.098q-.321 0-.357-.339l-.286-4.357.286-8.357q.036-.339.357-.339.143 0 .241.098t.098.241zm1.75-.714l.321 9.036-.321 4.321q-.036.375-.393.375-.339 0-.375-.375l-.286-4.321.286-9.036q0-.161.116-.277t.259-.116q.161 0 .268.116t.125.277zm7 13.25zm-3.536-13.322L16 20.196l-.268 4.268q0 .179-.134.313t-.313.134-.304-.125-.143-.321l-.25-4.268.25-9.107q0-.196.134-.321t.313-.125.313.125.134.321zm1.768.34l.25 8.786-.25 4.214q0 .196-.143.339t-.339.143-.339-.143-.161-.339l-.214-4.214.214-8.786q.018-.214.161-.357t.339-.143.33.143.152.357zm3.786 8.785l-.25 4.125q0 .232-.161.393t-.393.161-.393-.161-.179-.393l-.107-2.036-.107-2.089.214-11.357v-.054q.036-.268.214-.429.161-.125.357-.125.143 0 .268.089.25.143.286.464zm19.857-.339q0 2.089-1.482 3.563t-3.571 1.473H22.054q-.232-.036-.393-.196t-.161-.393V8.268q0-.411.5-.589 1.518-.607 3.232-.607 3.482 0 6.036 2.348t2.857 5.777q.946-.393 1.964-.393 2.089 0 3.571 1.482t1.482 3.589z"/></svg>