<svg version="1.1" xmlns="http://www.w3.org/2000/svg" width="39" height="32" viewBox="0 0 39 32" class="svg" focusable="false" aria-hidden="true" role="img"><path d="M11.071 20q-1.964 1.143-4.786 1.143H3.999V20H2.856q-.232 0-.402-.42t-.17-1.009q0-.429.125-.875-1.036-.036-1.723-.188t-.688-.366.688-.366 1.723-.188q-.125-.446-.125-.875 0-.589.17-1.009t.402-.42h1.143v-1.143h2.286q2.821 0 4.786 1.143h19.875q.75.125 1.902.321t1.438.25q1.589.268 2.679.723t1.491.848.402.714-.402.714-1.491.848-2.679.723q-.286.054-1.438.25t-1.902.321H11.071zm19.983-4.5q.946.643.946 1.643t-.946 1.643l1.446.536q1.214-.857 1.214-2.179T32.5 14.964zm-19.893 4.786h18.125q-3.875.679-8.143 1.429-1.018 0-2.018.429t-1.482.857l-.5.429L12 28.573q-.464.464-1.259.804t-1.598.339H7.429L5.768 21.43h.518q2.804 0 4.875-1.143zm-4.875-7.429h-.518l1.661-8.286h1.714q.821 0 1.607.339t1.25.804l5.143 5.143q.071.071.196.188t.545.411.866.518 1.098.411 1.295.188l8.143 1.429H11.161q-2.071-1.143-4.875-1.143z"/></svg>