<!-- Generated by IcoMoon.io -->
<svg version="1.1" xmlns="http://www.w3.org/2000/svg" width="39" height="32" viewBox="0 0 39 32">
<title>space-shuttle</title>
<path d="M11.071 20q-1.964 1.143-4.786 1.143h-2.286v-1.143h-1.143q-0.232 0-0.402-0.42t-0.17-1.009q0-0.429 0.125-0.875-1.036-0.036-1.723-0.188t-0.688-0.366 0.688-0.366 1.723-0.188q-0.125-0.446-0.125-0.875 0-0.589 0.17-1.009t0.402-0.42h1.143v-1.143h2.286q2.821 0 4.786 1.143h19.875q0.75 0.125 1.902 0.321t1.438 0.25q1.589 0.268 2.679 0.723t1.491 0.848 0.402 0.714-0.402 0.714-1.491 0.848-2.679 0.723q-0.286 0.054-1.438 0.25t-1.902 0.321h-19.875zM31.054 15.5q0.946 0.643 0.946 1.643t-0.946 1.643l1.446 0.536q1.214-0.857 1.214-2.179t-1.214-2.179zM11.161 20.286h18.125q-3.875 0.679-8.143 1.429-1.018 0-2.018 0.429t-1.482 0.857l-0.5 0.429-5.143 5.143q-0.464 0.464-1.259 0.804t-1.598 0.339h-1.714l-1.661-8.286h0.518q2.804 0 4.875-1.143zM6.286 12.857h-0.518l1.661-8.286h1.714q0.821 0 1.607 0.339t1.25 0.804l5.143 5.143q0.071 0.071 0.196 0.188t0.545 0.411 0.866 0.518 1.098 0.411 1.295 0.188l8.143 1.429h-18.125q-2.071-1.143-4.875-1.143z"></path>
</svg>
