<svg version="1.1" xmlns="http://www.w3.org/2000/svg" width="27" height="32" viewBox="0 0 27 32" class="svg" focusable="false" aria-hidden="true" role="img"><path d="M20.125 21.607q0-.571-.536-.911-3.446-2.054-7.982-2.054-2.375 0-5.125.607-.75.161-.75.929 0 .357.241.616t.634.259q.089 0 .661-.143 2.357-.482 4.339-.482 4.036 0 7.089 1.839.339.196.589.196.339 0 .589-.241t.25-.616zm1.714-3.839q0-.714-.625-1.089-4.232-2.518-9.786-2.518-2.732 0-5.411.75-.857.232-.857 1.143 0 .446.313.759t.759.313q.125 0 .661-.143 2.179-.589 4.482-.589 4.982 0 8.714 2.214.429.232.679.232.446 0 .759-.313t.313-.759zm1.929-4.429q0-.839-.714-1.25-2.25-1.304-5.232-1.973t-6.125-.67q-3.643 0-6.5.839-.411.125-.688.455t-.277.866q0 .554.366.929t.92.375q.196 0 .714-.143 2.375-.661 5.482-.661 2.839 0 5.527.607t4.527 1.696q.375.214.714.214.518 0 .902-.366t.384-.92zM27.429 16q0 3.732-1.839 6.884t-4.991 4.991-6.884 1.839-6.884-1.839-4.991-4.991T.001 16 1.84 9.116t4.991-4.991 6.884-1.839 6.884 1.839 4.991 4.991T27.429 16z"/></svg>