<svg version="1.1" xmlns="http://www.w3.org/2000/svg" width="30" height="32" viewBox="0 0 30 32" class="svg" focusable="false" aria-hidden="true" role="img"><path d="M29.714 11.554q0 .393-.464.857l-6.482 6.321 1.536 8.929q.018.125.018.357 0 .375-.188.634t-.545.259q-.339 0-.714-.214l-8.018-4.214-8.018 4.214q-.393.214-.714.214-.375 0-.563-.259t-.188-.634q0-.107.036-.357l1.536-8.929-6.5-6.321Q0 11.929 0 11.554q0-.661 1-.821l8.964-1.304 4.018-8.125q.339-.732.875-.732t.875.732l4.018 8.125 8.964 1.304q1 .161 1 .821z"/></svg>