<!-- Generated by IcoMoon.io -->
<svg version="1.1" xmlns="http://www.w3.org/2000/svg" width="34" height="32" viewBox="0 0 34 32">
<title>stumbleupon</title>
<path d="M18.964 12.714v-2.107q0-0.75-0.536-1.286t-1.286-0.536-1.286 0.536-0.536 1.286v10.929q0 3.125-2.25 5.339t-5.411 2.214q-3.179 0-5.42-2.241t-2.241-5.42v-4.75h5.857v4.679q0 0.768 0.536 1.295t1.286 0.527 1.286-0.527 0.536-1.295v-11.071q0-3.054 2.259-5.214t5.384-2.161q3.143 0 5.393 2.179t2.25 5.25v2.429l-3.482 1.036zM28.429 16.679h5.857v4.75q0 3.179-2.241 5.42t-5.42 2.241q-3.161 0-5.411-2.223t-2.25-5.366v-4.786l2.339 1.089 3.482-1.036v4.821q0 0.75 0.536 1.277t1.286 0.527 1.286-0.527 0.536-1.277v-4.911z"></path>
</svg>
