<!-- Generated by IcoMoon.io -->
<svg version="1.1" xmlns="http://www.w3.org/2000/svg" width="21" height="32" viewBox="0 0 21 32">
<title>tablet</title>
<path d="M11.429 25.143q0-0.464-0.339-0.804t-0.804-0.339-0.804 0.339-0.339 0.804 0.339 0.804 0.804 0.339 0.804-0.339 0.339-0.804zM18.286 22.286v-17.143q0-0.232-0.17-0.402t-0.402-0.17h-14.857q-0.232 0-0.402 0.17t-0.17 0.402v17.143q0 0.232 0.17 0.402t0.402 0.17h14.857q0.232 0 0.402-0.17t0.17-0.402zM20.571 5.143v19.429q0 1.179-0.839 2.018t-2.018 0.839h-14.857q-1.179 0-2.018-0.839t-0.839-2.018v-19.429q0-1.179 0.839-2.018t2.018-0.839h14.857q1.179 0 2.018 0.839t0.839 2.018z"></path>
</svg>
