<svg version="1.1" xmlns="http://www.w3.org/2000/svg" width="21" height="32" viewBox="0 0 21 32" class="svg" focusable="false" aria-hidden="true" role="img"><path d="M11.429 25.143q0-.464-.339-.804T10.286 24t-.804.339-.339.804.339.804.804.339.804-.339.339-.804zm6.857-2.857V5.143q0-.232-.17-.402t-.402-.17H2.857q-.232 0-.402.17t-.17.402v17.143q0 .232.17.402t.402.17h14.857q.232 0 .402-.17t.17-.402zm2.285-17.143v19.429q0 1.179-.839 2.018t-2.018.839H2.857q-1.179 0-2.018-.839T0 24.572V5.143q0-1.179.839-2.018t2.018-.839h14.857q1.179 0 2.018.839t.839 2.018z"/></svg>