<svg version="1.1" xmlns="http://www.w3.org/2000/svg" width="27" height="32" viewBox="0 0 27 32" class="svg" focusable="false" aria-hidden="true" role="img"><path d="M4.571 24q0-.464-.339-.804t-.804-.339-.804.339-.339.804.339.804.804.339.804-.339.339-.804zm20.572-10.286q0-.911-.696-1.598t-1.589-.688h-6.286q0-1.036.857-2.848t.857-2.866q0-1.75-.571-2.589t-2.286-.839q-.464.464-.679 1.518t-.545 2.241T13.142 8q-.393.411-1.375 1.625-.071.089-.411.536t-.563.732-.616.759-.714.786-.688.634-.714.482-.634.161h-.571v11.429h.571q.232 0 .563.054t.589.116.679.196.625.205.634.223.518.188q3.768 1.304 6.107 1.304h2.161q3.429 0 3.429-2.982 0-.464-.089-1 .536-.286.848-.938t.313-1.313-.321-1.232q.946-.893.946-2.125 0-.446-.179-.991t-.446-.848q.571-.018.955-.839t.384-1.446zm2.286-.018q0 1.589-.875 2.911.161.589.161 1.232 0 1.375-.679 2.571.054.375.054.768 0 1.804-1.071 3.179.018 2.482-1.518 3.92t-4.054 1.438h-2.304q-1.714 0-3.384-.402t-3.866-1.17q-2.071-.714-2.464-.714H2.286q-.946 0-1.616-.67T0 25.143V13.714q0-.946.67-1.616t1.616-.67h4.893q.643-.429 2.446-2.768 1.036-1.339 1.911-2.286.429-.446.634-1.527t.545-2.259T13.822.659q.696-.661 1.607-.661 1.5 0 2.696.58t1.821 1.813.625 3.321q0 1.661-.857 3.429h3.143q1.857 0 3.214 1.357t1.357 3.196z"/></svg>