<svg version="1.1" xmlns="http://www.w3.org/2000/svg" width="19" height="32" viewBox="0 0 19 32" class="svg" focusable="false" aria-hidden="true" role="img"><path d="M16.857 23.732l1.429 4.232q-.411.625-1.982 1.179t-3.161.571q-1.857.036-3.402-.464t-2.545-1.321T5.5 26.036t-.991-2.143-.295-2.107v-9.714h-3V8.233Q2.5 7.769 3.518 6.992t1.625-1.607 1.036-1.821.607-1.768.268-1.58q.018-.089.08-.152t.134-.063h4.357v7.571h5.946v4.5h-5.964v9.25q0 .536.116 1t.402.938.884.741 1.455.25q1.393-.036 2.393-.518z"/></svg>