<svg version="1.1" xmlns="http://www.w3.org/2000/svg" width="30" height="32" viewBox="0 0 30 32" class="svg" focusable="false" aria-hidden="true" role="img"><path d="M16 14.786v10.357q0 1.857-1.357 3.214t-3.214 1.357-3.214-1.357-1.357-3.214q0-.464.339-.804T8.001 24t.804.339.339.804q0 .893.696 1.589t1.589.696 1.589-.696.696-1.589V14.786q.589-.196 1.143-.196t1.143.196zm13.714.482q0 .232-.17.402t-.402.17q-.196 0-.411-.179-.875-.821-1.661-1.232t-1.821-.411q-1.214 0-2.286.661t-1.839 1.732q-.125.179-.313.5t-.259.429q-.196.304-.5.304-.321 0-.518-.304-.071-.107-.259-.429t-.313-.5q-.768-1.071-1.83-1.732t-2.277-.661-2.277.661-1.83 1.732q-.125.179-.313.5t-.259.429q-.196.304-.518.304-.304 0-.5-.304-.071-.107-.259-.429t-.313-.5q-.768-1.071-1.839-1.732t-2.286-.661q-1.036 0-1.821.411T.979 15.661q-.214.179-.411.179-.232 0-.402-.17t-.17-.402q0-.089.018-.125.804-3.268 3.08-5.705t5.321-3.652 6.438-1.214q2.5 0 4.902.714t4.402 2.027 3.473 3.339 2.063 4.491q.018.036.018.125zM16 2.286v1.75Q15.25 4 14.857 4t-1.143.036v-1.75q0-.464.339-.804t.804-.339.804.339.339.804z"/></svg>