<svg version="1.1" xmlns="http://www.w3.org/2000/svg" width="30" height="32" viewBox="0 0 30 32" class="svg" focusable="false" aria-hidden="true" role="img"><path d="M29.714 10.286v4.571q0 .464-.339.804t-.804.339h-1.143q-.464 0-.804-.339t-.339-.804v-4.571q0-1.893-1.339-3.232t-3.232-1.339-3.232 1.339-1.339 3.232v3.429h1.714q.714 0 1.214.5t.5 1.214v10.286q0 .714-.5 1.214t-1.214.5H1.714q-.714 0-1.214-.5T0 25.715V15.429q0-.714.5-1.214t1.214-.5h12v-3.429q0-3.304 2.348-5.652t5.652-2.348 5.652 2.348 2.348 5.652z"/></svg>