<svg version="1.1" xmlns="http://www.w3.org/2000/svg" width="30" height="32" viewBox="0 0 30 32" class="svg" focusable="false" aria-hidden="true" role="img"><path d="M22.857 26.286q0-.464-.339-.804t-.804-.339-.804.339-.339.804.339.804.804.339.804-.339.339-.804zm4.572 0q0-.464-.339-.804t-.804-.339-.804.339-.339.804.339.804.804.339.804-.339.339-.804zm2.285-4V28q0 .714-.5 1.214t-1.214.5H1.714q-.714 0-1.214-.5T0 28v-5.714q0-.714.5-1.214t1.214-.5h7.625q.375 1 1.259 1.643t1.973.643h4.571q1.089 0 1.973-.643t1.259-1.643h7.625q.714 0 1.214.5t.5 1.214zm-5.803-11.572q-.304.714-1.054.714h-4.571v8q0 .464-.339.804t-.804.339h-4.571q-.464 0-.804-.339t-.339-.804v-8H6.858q-.75 0-1.054-.714-.304-.696.25-1.232l8-8q.321-.339.804-.339t.804.339l8 8q.554.536.25 1.232z"/></svg>