<svg version="1.1" xmlns="http://www.w3.org/2000/svg" width="25" height="32" viewBox="0 0 25 32" class="svg" focusable="false" aria-hidden="true" role="img"><path d="M25.143 25.089q0 2.143-1.304 3.384t-3.464 1.241H4.768q-2.161 0-3.464-1.241T0 25.089q0-.946.063-1.848t.25-1.946.473-1.938.768-1.741 1.107-1.446 1.527-.955 1.991-.357q.161 0 .75.384t1.33.857 1.929.857 2.384.384 2.384-.384 1.929-.857 1.33-.857.75-.384q1.089 0 1.991.357t1.527.955 1.107 1.446.768 1.741.473 1.938.25 1.946.063 1.848zM19.429 9.143q0 2.839-2.009 4.848T12.572 16t-4.848-2.009-2.009-4.848 2.009-4.848 4.848-2.009 4.848 2.009 2.009 4.848z"/></svg>