<svg version="1.1" xmlns="http://www.w3.org/2000/svg" width="27" height="32" viewBox="0 0 27 32" class="svg" focusable="false" aria-hidden="true" role="img"><path d="M26.732 14.768v3.536q-1.804.411-3.536.411-1.161 2.429-2.955 4.839T17 27.402t-2.286 1.902q-1.429.804-2.893-.054-.5-.304-1.08-.777t-1.518-1.491-1.83-2.295-1.92-3.286-1.884-4.357-1.634-5.616T.696 4.464H5.75Q6.214 8.357 7 11.58t1.866 5.661 2.17 4.205 2.5 3.482q3.018-3.018 5.125-7.25-2.536-1.286-3.982-3.929t-1.446-5.946q0-3.429 1.857-5.616t5.071-2.188q3.179 0 4.875 1.884t1.696 5.313q0 2.839-1.036 5.107-.125.018-.348.054t-.821.036-1.125-.107-1.107-.455-.902-.92q.554-1.839.554-3.286 0-1.554-.518-2.357t-1.411-.804q-.946 0-1.518.884t-.571 2.509q0 3.321 1.875 5.241t4.768 1.92q1.107 0 2.161-.25z"/></svg>