<svg version="1.1" xmlns="http://www.w3.org/2000/svg" width="35" height="32" viewBox="0 0 35 32" class="svg" focusable="false" aria-hidden="true" role="img"><path d="M34.232 9.286q.411 1.143-2.679 5.25-.429.571-1.161 1.518-1.393 1.786-1.607 2.339-.304.732.25 1.446.304.375 1.446 1.464h.018l.071.071q2.518 2.339 3.411 3.946.054.089.116.223t.125.473-.009.607-.446.491-1.054.223l-4.571.071q-.429.089-1-.089t-.929-.393l-.357-.214q-.536-.375-1.25-1.143t-1.223-1.384-1.089-1.036-1.009-.277q-.054.018-.143.063t-.304.259-.384.527-.304.929-.116 1.384q0 .268-.063.491t-.134.33l-.071.089q-.321.339-.946.393h-2.054q-1.268.071-2.607-.295t-2.348-.946-1.839-1.179-1.259-1.027l-.446-.429q-.179-.179-.491-.536T6.499 21.3t-1.893-2.696-2.188-3.768-2.33-4.857q-.107-.286-.107-.482t.054-.286l.071-.107q.268-.339 1.018-.339l4.893-.036q.214.036.411.116t.286.152l.089.054q.286.196.429.571.357.893.821 1.848t.732 1.455l.286.518q.518 1.071 1 1.857t.866 1.223.741.688.607.25.482-.089q.036-.018.089-.089t.214-.393.241-.839.17-1.446 0-2.232q-.036-.714-.161-1.304t-.25-.821l-.107-.214q-.446-.607-1.518-.768-.232-.036.089-.429.304-.339.679-.536.946-.464 4.268-.429 1.464.018 2.411.232.357.089.598.241t.366.429.188.571.063.813-.018.982-.045 1.259-.027 1.473q0 .196-.018.75t-.009.857.063.723.205.696.402.438q.143.036.304.071t.464-.196.679-.616.929-1.196 1.214-1.92q1.071-1.857 1.911-4.018.071-.179.179-.313t.196-.188l.071-.054.089-.045.232-.054.357-.009 5.143-.036q.696-.089 1.143.045t.554.295z"/></svg>