<svg version="1.1" xmlns="http://www.w3.org/2000/svg" width="30" height="32" viewBox="0 0 30 32" class="svg" focusable="false" aria-hidden="true" role="img"><path d="M13.714 6.286v19.429q0 .464-.339.804t-.804.339-.804-.339l-5.946-5.946H1.142q-.464 0-.804-.339t-.339-.804v-6.857q0-.464.339-.804t.804-.339h4.679l5.946-5.946q.339-.339.804-.339t.804.339.339.804zM20.571 16q0 1.357-.759 2.527t-2.009 1.67q-.179.089-.446.089-.464 0-.804-.33t-.339-.813q0-.375.214-.634t.518-.446.607-.411.518-.634.214-1.018-.214-1.018-.518-.634-.607-.411-.518-.446-.214-.634q0-.482.339-.813t.804-.33q.268 0 .446.089 1.25.482 2.009 1.661T20.571 16zm4.572 0q0 2.732-1.518 5.045t-4.018 3.366q-.232.089-.446.089-.482 0-.821-.339t-.339-.804q0-.696.696-1.054 1-.518 1.357-.786 1.321-.964 2.063-2.42t.741-3.098-.741-3.098-2.063-2.42q-.357-.268-1.357-.786-.696-.357-.696-1.054 0-.464.339-.804t.804-.339q.232 0 .464.089 2.5 1.054 4.018 3.366t1.518 5.045zm4.571 0q0 4.107-2.268 7.545t-6.036 5.063q-.232.089-.464.089-.464 0-.804-.339t-.339-.804q0-.643.696-1.054.125-.071.402-.188t.402-.188q.821-.446 1.464-.911 2.196-1.625 3.429-4.054t1.232-5.161-1.232-5.161-3.429-4.054q-.643-.464-1.464-.911-.125-.071-.402-.188t-.402-.188q-.696-.411-.696-1.054 0-.464.339-.804t.804-.339q.232 0 .464.089 3.768 1.625 6.036 5.063t2.268 7.545z"/></svg>