<svg version="1.1" xmlns="http://www.w3.org/2000/svg" width="32" height="32" viewBox="0 0 32 32" class="svg" focusable="false" aria-hidden="true" role="img"><path d="M12.054 22.929q.375-.607.196-1.232t-.804-.893q-.607-.25-1.304-.018t-1.071.821q-.393.607-.232 1.223t.768.902 1.33.045 1.116-.848zm1.678-2.161q.143-.232.063-.473t-.313-.33q-.25-.089-.509.009t-.384.33q-.304.554.232.804.25.089.518-.009t.393-.33zm3.107 1.911q-.804 1.821-2.821 2.679t-4 .214q-1.911-.607-2.634-2.259t.116-3.348q.839-1.661 2.705-2.482t3.759-.339q1.982.518 2.83 2.134t.045 3.402zm5.572-2.858q-.161-1.714-1.589-3.036t-3.723-1.946-4.902-.375q-3.982.411-6.598 2.527t-2.366 4.723q.161 1.714 1.589 3.036t3.723 1.946 4.902.375q3.982-.411 6.598-2.527t2.366-4.723zm5.5.072q0 1.214-.661 2.491t-1.946 2.446-3.009 2.098-4.036 1.482-4.83.554-4.911-.598-4.295-1.661-3.063-2.696-1.161-3.563q0-2.054 1.241-4.375t3.527-4.607q3.018-3.018 6.098-4.214t4.402.125q1.161 1.143.357 3.732-.071.25-.018.357t.179.125.259-.009.241-.063l.107-.036q2.482-1.054 4.393-1.054t2.732 1.089q.804 1.125 0 3.179-.036.232-.08.357t.08.223.214.134.304.107q1.018.321 1.839.839t1.429 1.455.607 2.08zM26.589 8.75q.75.839.973 1.938t-.116 2.098q-.143.411-.527.607t-.795.071q-.411-.143-.607-.527t-.071-.795q.357-1.125-.429-1.982t-1.911-.625q-.429.089-.804-.143t-.446-.661q-.089-.429.143-.795t.661-.455q1.071-.232 2.125.098t1.804 1.17zm3.232-2.911q1.554 1.714 2.009 3.973t-.241 4.313q-.161.482-.607.714t-.929.071-.714-.607-.089-.929q.5-1.464.179-3.071T28 7.482q-1.107-1.232-2.643-1.705t-3.089-.152q-.5.107-.929-.17t-.536-.777.17-.92.777-.527q2.196-.464 4.357.205t3.714 2.402z"/></svg>