<svg version="1.1" xmlns="http://www.w3.org/2000/svg" width="32" height="32" viewBox="0 0 32 32" class="svg" focusable="false" aria-hidden="true" role="img"><path d="M2.268 16q0-2.911 1.196-5.589l6.554 17.946q-3.5-1.696-5.625-5.018T2.268 16zm23-.696q0 .339-.045.688t-.179.884-.205.786-.313 1.054-.313 1.036l-1.357 4.571-4.964-14.75q.821-.054 1.571-.143.339-.036.464-.33t-.045-.554-.509-.241l-3.661.179q-1.339-.018-3.607-.179-.214-.018-.366.089t-.205.268-.027.33.161.295.348.143l1.429.143 2.143 5.857-3 9-5-14.857q.821-.054 1.571-.143.339-.036.464-.33t-.045-.554-.509-.241l-3.661.179q-.125 0-.411-.009t-.464-.009q1.875-2.857 4.902-4.527t6.563-1.67q2.625 0 5.009.946t4.259 2.661h-.179q-.982 0-1.643.723t-.661 1.705q0 .214.036.429t.071.384.143.411.161.375.214.402.223.375.259.429.25.411q1.125 1.911 1.125 3.786zm-9.036 1.892l4.232 11.554q.018.107.089.196-2.25.786-4.554.786-2 0-3.875-.571zm11.804-7.785q1.696 3.107 1.696 6.589 0 3.732-1.857 6.884t-4.982 4.973l4.196-12.107q1.054-3.018 1.054-4.929 0-.75-.107-1.411zM16 0q3.25 0 6.214 1.268t5.107 3.411 3.411 5.107T32 16t-1.268 6.214-3.411 5.107-5.107 3.411T16 32t-6.214-1.268-5.107-3.411-3.411-5.107T0 16t1.268-6.214 3.411-5.107 5.107-3.411T16 0zm0 31.268q3.089 0 5.92-1.214t4.875-3.259 3.259-4.875T31.268 16t-1.214-5.92-3.259-4.875-4.875-3.259T16 .732t-5.92 1.214-4.875 3.259-3.259 4.875T.732 16t1.214 5.92 3.259 4.875 4.875 3.259T16 31.268z"/></svg>