<svg version="1.1" xmlns="http://www.w3.org/2000/svg" width="27" height="32" viewBox="0 0 27 32" class="svg" focusable="false" aria-hidden="true" role="img"><path d="M13.804 23.554v2.268q-.018 5.214-.107 5.446-.214.571-.911.714-.964.161-3.241-.679t-2.902-1.589q-.232-.268-.304-.643-.018-.214.071-.464.071-.179.607-.839t3.232-3.857q.018 0 1.071-1.25.268-.339.705-.438t.884.063q.429.179.67.518t.223.75zm-2.661-4.483q-.054.982-.929 1.25l-2.143.696q-4.911 1.571-5.214 1.571-.625-.036-.964-.643-.214-.446-.304-1.339-.143-1.357.018-2.973t.536-2.223 1-.571q.232 0 3.607 1.375 1.25.518 2.054.839l1.5.607q.411.161.634.545t.205.866zm14.75 5.304q-.125.964-1.634 2.875t-2.42 2.268q-.661.25-1.125-.125-.25-.179-3.286-5.125l-.839-1.375q-.25-.375-.205-.821t.348-.821q.625-.768 1.482-.464.018.018 2.125.714 3.625 1.179 4.321 1.42t.839.366q.5.393.393 1.089zm-12-11.286q.089 1.821-.964 2.179-1.036.304-2.036-1.268L4.143 3.321Q4 2.696 4.482 2.214q.732-.768 3.705-1.598t4.009-.563q.714.179.875.804.054.321.393 5.455t.429 6.777zm11.821 1.929q.054.696-.464 1.054-.268.179-5.875 1.536-1.196.268-1.625.411l.018-.036q-.411.107-.821-.071t-.661-.571q-.536-.839 0-1.554.018-.018 1.339-1.821 2.232-3.054 2.679-3.643t.607-.696q.5-.339 1.161-.036.857.411 2.196 2.384t1.446 2.991v.054z"/></svg>