<svg version="1.1" xmlns="http://www.w3.org/2000/svg" width="27" height="32" viewBox="0 0 27 32" class="svg" focusable="false" aria-hidden="true" role="img"><path d="M17.339 22.214v3.768q0 1.196-.696 1.196-.411 0-.804-.393V21.41q.393-.393.804-.393.696 0 .696 1.196zm6.036.018v.821h-1.607v-.821q0-1.214.804-1.214t.804 1.214zm-17.25-3.893h1.911V16.66H2.465v1.679H4.34V28.5h1.786V18.339zM11.268 28.5h1.589v-8.821h-1.589v6.75q-.536.75-1.018.75-.321 0-.375-.375-.018-.054-.018-.625v-6.5H8.268v6.982q0 .875.143 1.304.214.661 1.036.661.857 0 1.821-1.089v.964zm7.661-2.643v-3.518q0-1.304-.161-1.768-.304-1-1.268-1-.893 0-1.661.964V16.66H14.25v11.839h1.589v-.857q.804.982 1.661.982.964 0 1.268-.982.161-.482.161-1.786zm6.035-.178v-.232h-1.625q0 .911-.036 1.089-.125.643-.714.643-.821 0-.821-1.232v-1.554h3.196v-1.839q0-1.411-.482-2.071-.696-.911-1.893-.911-1.214 0-1.911.911-.5.661-.5 2.071v3.089q0 1.411.518 2.071.696.911 1.929.911 1.286 0 1.929-.946.321-.482.375-.964.036-.161.036-1.036zM14.107 9.375v-3.75q0-1.232-.768-1.232t-.768 1.232v3.75q0 1.25.768 1.25t.768-1.25zm12.839 13.411q0 4.179-.464 6.25-.25 1.054-1.036 1.768t-1.821.821Q20.339 32 13.714 32t-9.911-.375q-1.036-.107-1.83-.821T.946 29.036q-.464-2-.464-6.25 0-4.179.464-6.25.25-1.054 1.036-1.768t1.839-.839q3.268-.357 9.893-.357t9.911.357q1.036.125 1.83.839t1.027 1.768q.464 2 .464 6.25zM9.125 0h1.821L8.785 7.125v4.839H6.999V7.125q-.25-1.321-1.089-3.786Q5.249 1.5 4.749 0h1.893L7.91 4.696zm6.607 5.946v3.125q0 1.446-.5 2.107-.661.911-1.893.911-1.196 0-1.875-.911-.5-.679-.5-2.107V5.946q0-1.429.5-2.089.679-.911 1.875-.911 1.232 0 1.893.911.5.661.5 2.089zm5.982-2.892v8.911h-1.625v-.982q-.946 1.107-1.839 1.107-.821 0-1.054-.661-.143-.429-.143-1.339V3.054h1.625v6.554q0 .589.018.625.054.393.375.393.482 0 1.018-.768V3.054h1.625z"/></svg>