<!-- Generated by IcoMoon.io -->
<svg version="1.1" xmlns="http://www.w3.org/2000/svg" width="23" height="28" viewBox="0 0 23 28">
<title>arrow-right</title>
<path d="M23 15c0 0.531-0.203 1.047-0.578 1.422l-10.172 10.172c-0.375 0.359-0.891 0.578-1.422 0.578s-1.031-0.219-1.406-0.578l-1.172-1.172c-0.375-0.375-0.594-0.891-0.594-1.422s0.219-1.047 0.594-1.422l4.578-4.578h-11c-1.125 0-1.828-0.938-1.828-2v-2c0-1.062 0.703-2 1.828-2h11l-4.578-4.594c-0.375-0.359-0.594-0.875-0.594-1.406s0.219-1.047 0.594-1.406l1.172-1.172c0.375-0.375 0.875-0.594 1.406-0.594s1.047 0.219 1.422 0.594l10.172 10.172c0.375 0.359 0.578 0.875 0.578 1.406z"></path>
</svg>
