<!-- Generated by IcoMoon.io -->
<svg version="1.1" xmlns="http://www.w3.org/2000/svg" width="27" height="32" viewBox="0 0 27 32">
<title>arrow-circle-left</title>
<path d="M22.857 17.143v-2.286q0-0.464-0.339-0.804t-0.804-0.339h-8.964l3.375-3.375q0.339-0.339 0.339-0.804t-0.339-0.804l-1.625-1.625q-0.321-0.321-0.804-0.321t-0.804 0.321l-8.089 8.089q-0.321 0.321-0.321 0.804t0.321 0.804l8.089 8.089q0.321 0.321 0.804 0.321t0.804-0.321l1.625-1.625q0.321-0.321 0.321-0.804t-0.321-0.804l-3.375-3.375h8.964q0.464 0 0.804-0.339t0.339-0.804zM27.429 16q0 3.732-1.839 6.884t-4.991 4.991-6.884 1.839-6.884-1.839-4.991-4.991-1.839-6.884 1.839-6.884 4.991-4.991 6.884-1.839 6.884 1.839 4.991 4.991 1.839 6.884z"></path>
</svg>
