<!-- Generated by IcoMoon.io -->
<svg version="1.1" xmlns="http://www.w3.org/2000/svg" width="37" height="32" viewBox="0 0 37 32">
<title>behance</title>
<path d="M33 6.054h-9.125v2.214h9.125v-2.214zM28.5 13.661q-1.607 0-2.607 0.938t-1.107 2.545h7.286q-0.321-3.482-3.571-3.482zM28.786 24.107q1.125 0 2.179-0.571t1.357-1.554h3.946q-1.786 5.482-7.625 5.482-3.821 0-6.080-2.357t-2.259-6.196q0-3.714 2.33-6.17t6.009-2.455q2.464 0 4.295 1.214t2.732 3.196 0.902 4.429q0 0.304-0.036 0.839h-11.75q0 1.982 1.027 3.063t2.973 1.080zM4.946 23.214h5.286q3.661 0 3.661-2.982 0-3.214-3.554-3.214h-5.393v6.196zM4.946 13.625h5.018q1.393 0 2.205-0.652t0.813-2.027q0-2.571-3.393-2.571h-4.643v5.25zM0 4.536h10.607q1.554 0 2.768 0.25t2.259 0.848 1.607 1.723 0.563 2.75q0 3.232-3.071 4.696 2.036 0.571 3.071 2.054t1.036 3.643q0 1.339-0.438 2.438t-1.179 1.848-1.759 1.268-2.161 0.75-2.393 0.232h-10.911v-22.5z"></path>
</svg>
