<!-- Generated by IcoMoon.io -->
<svg version="1.1" xmlns="http://www.w3.org/2000/svg" width="23" height="32" viewBox="0 0 23 32">
<title>female</title>
<path d="M22.857 18.857q0 0.714-0.5 1.214t-1.214 0.5q-0.911 0-1.429-0.768l-4.054-6.089h-0.804v2.357l4.411 7.339q0.161 0.268 0.161 0.589 0 0.464-0.339 0.804t-0.804 0.339h-3.429v4.857q0 0.821-0.589 1.411t-1.411 0.589h-2.857q-0.821 0-1.411-0.589t-0.589-1.411v-4.857h-3.429q-0.464 0-0.804-0.339t-0.339-0.804q0-0.321 0.161-0.589l4.411-7.339v-2.357h-0.804l-4.054 6.089q-0.518 0.768-1.429 0.768-0.714 0-1.214-0.5t-0.5-1.214q0-0.518 0.286-0.946l4.571-6.857q1.304-1.911 3.143-1.911h6.857q1.839 0 3.143 1.911l4.571 6.857q0.286 0.429 0.286 0.946zM15.429 4.571q0 1.661-1.17 2.83t-2.83 1.17-2.83-1.17-1.17-2.83 1.17-2.83 2.83-1.17 2.83 1.17 1.17 2.83z"></path>
</svg>
