<!-- Generated by IcoMoon.io -->
<svg version="1.1" xmlns="http://www.w3.org/2000/svg" width="21" height="32" viewBox="0 0 21 32">
<title>lock</title>
<path d="M5.714 13.714h9.143v-3.429q0-1.893-1.339-3.232t-3.232-1.339-3.232 1.339-1.339 3.232v3.429zM20.571 15.429v10.286q0 0.714-0.5 1.214t-1.214 0.5h-17.143q-0.714 0-1.214-0.5t-0.5-1.214v-10.286q0-0.714 0.5-1.214t1.214-0.5h0.571v-3.429q0-3.286 2.357-5.643t5.643-2.357 5.643 2.357 2.357 5.643v3.429h0.571q0.714 0 1.214 0.5t0.5 1.214z"></path>
</svg>
