<!-- Generated by IcoMoon.io -->
<svg version="1.1" xmlns="http://www.w3.org/2000/svg" width="27" height="32" viewBox="0 0 27 32">
<title>pause</title>
<path d="M27.429 3.429v25.143q0 0.464-0.339 0.804t-0.804 0.339h-9.143q-0.464 0-0.804-0.339t-0.339-0.804v-25.143q0-0.464 0.339-0.804t0.804-0.339h9.143q0.464 0 0.804 0.339t0.339 0.804zM11.429 3.429v25.143q0 0.464-0.339 0.804t-0.804 0.339h-9.143q-0.464 0-0.804-0.339t-0.339-0.804v-25.143q0-0.464 0.339-0.804t0.804-0.339h9.143q0.464 0 0.804 0.339t0.339 0.804z"></path>
</svg>
