<!-- Generated by IcoMoon.io -->
<svg version="1.1" xmlns="http://www.w3.org/2000/svg" width="30" height="32" viewBox="0 0 30 32">
<title>rocket</title>
<path d="M25.714 8q0-0.714-0.5-1.214t-1.214-0.5-1.214 0.5-0.5 1.214 0.5 1.214 1.214 0.5 1.214-0.5 0.5-1.214zM29.714 2.857q0 4.446-1.348 7.687t-4.527 6.438q-1.446 1.429-3.482 3.143l-0.357 6.768q-0.036 0.286-0.286 0.464l-6.857 4q-0.125 0.071-0.286 0.071-0.214 0-0.411-0.161l-1.143-1.143q-0.232-0.25-0.143-0.571l1.518-4.929-5.018-5.018-4.929 1.518q-0.054 0.018-0.161 0.018-0.25 0-0.411-0.161l-1.143-1.143q-0.304-0.339-0.089-0.696l4-6.857q0.179-0.25 0.464-0.286l6.768-0.357q1.714-2.036 3.143-3.482 3.357-3.339 6.393-4.607t7.696-1.268q0.25 0 0.429 0.17t0.179 0.402z"></path>
</svg>
