<!-- Generated by IcoMoon.io -->
<svg version="1.1" xmlns="http://www.w3.org/2000/svg" width="27" height="32" viewBox="0 0 27 32">
<title>thumbs-o-up</title>
<path d="M4.571 24q0-0.464-0.339-0.804t-0.804-0.339-0.804 0.339-0.339 0.804 0.339 0.804 0.804 0.339 0.804-0.339 0.339-0.804zM25.143 13.714q0-0.911-0.696-1.598t-1.589-0.688h-6.286q0-1.036 0.857-2.848t0.857-2.866q0-1.75-0.571-2.589t-2.286-0.839q-0.464 0.464-0.679 1.518t-0.545 2.241-1.063 1.955q-0.393 0.411-1.375 1.625-0.071 0.089-0.411 0.536t-0.563 0.732-0.616 0.759-0.714 0.786-0.688 0.634-0.714 0.482-0.634 0.161h-0.571v11.429h0.571q0.232 0 0.563 0.054t0.589 0.116 0.679 0.196 0.625 0.205 0.634 0.223 0.518 0.188q3.768 1.304 6.107 1.304h2.161q3.429 0 3.429-2.982 0-0.464-0.089-1 0.536-0.286 0.848-0.938t0.313-1.313-0.321-1.232q0.946-0.893 0.946-2.125 0-0.446-0.179-0.991t-0.446-0.848q0.571-0.018 0.955-0.839t0.384-1.446zM27.429 13.696q0 1.589-0.875 2.911 0.161 0.589 0.161 1.232 0 1.375-0.679 2.571 0.054 0.375 0.054 0.768 0 1.804-1.071 3.179 0.018 2.482-1.518 3.92t-4.054 1.438h-2.304q-1.714 0-3.384-0.402t-3.866-1.17q-2.071-0.714-2.464-0.714h-5.143q-0.946 0-1.616-0.67t-0.67-1.616v-11.429q0-0.946 0.67-1.616t1.616-0.67h4.893q0.643-0.429 2.446-2.768 1.036-1.339 1.911-2.286 0.429-0.446 0.634-1.527t0.545-2.259 1.107-1.929q0.696-0.661 1.607-0.661 1.5 0 2.696 0.58t1.821 1.813 0.625 3.321q0 1.661-0.857 3.429h3.143q1.857 0 3.214 1.357t1.357 3.196z"></path>
</svg>
