<!-- Generated by IcoMoon.io -->
<svg version="1.1" xmlns="http://www.w3.org/2000/svg" width="30" height="32" viewBox="0 0 30 32">
<title>unlock</title>
<path d="M29.714 10.286v4.571q0 0.464-0.339 0.804t-0.804 0.339h-1.143q-0.464 0-0.804-0.339t-0.339-0.804v-4.571q0-1.893-1.339-3.232t-3.232-1.339-3.232 1.339-1.339 3.232v3.429h1.714q0.714 0 1.214 0.5t0.5 1.214v10.286q0 0.714-0.5 1.214t-1.214 0.5h-17.143q-0.714 0-1.214-0.5t-0.5-1.214v-10.286q0-0.714 0.5-1.214t1.214-0.5h12v-3.429q0-3.304 2.348-5.652t5.652-2.348 5.652 2.348 2.348 5.652z"></path>
</svg>
